<svg width="150" height="150" viewBox="0 0 150 150" fill="none" xmlns="http://www.w3.org/2000/svg">
<circle cx="75" cy="75" r="75" fill="url(#paint0_linear_29_3)"/>
<path d="M51.8579 96.8696C51.1771 96.8682 50.5198 96.6203 50.0076 96.1718C49.4955 95.7232 49.1631 95.1043 49.072 94.4296L42.4288 44.7512C42.3307 44.0119 42.53 43.264 42.9827 42.6715C43.4354 42.0789 44.1048 41.6902 44.8438 41.5906L72.253 37.9254C72.6191 37.8764 72.9912 37.9001 73.3482 37.9949C73.7052 38.0898 74.04 38.2541 74.3334 38.4784C74.6269 38.7026 74.8734 38.9825 75.0587 39.302C75.244 39.6215 75.3645 39.9744 75.4134 40.3405L78.6971 64.7727L77.51 64.9322L74.2266 40.5C74.1986 40.2896 74.1294 40.0868 74.023 39.9031C73.9165 39.7195 73.775 39.5586 73.6063 39.4298C73.4377 39.3009 73.2453 39.2065 73.0401 39.1521C72.835 39.0976 72.6211 39.0842 72.4107 39.1124L45.0025 42.7776C44.5782 42.8348 44.1939 43.058 43.9339 43.3982C43.6739 43.7385 43.5594 44.1679 43.6157 44.5924L50.2591 94.271C50.3164 94.6953 50.5396 95.0795 50.8799 95.3393C51.2202 95.5991 51.6496 95.7133 52.074 95.6569L64.866 93.9459L65.0246 95.133L52.2328 96.8439C52.1085 96.8607 51.9833 96.8693 51.8579 96.8696Z" fill="white"/>
<path d="M52.409 93.6546C52.2641 93.6544 52.1241 93.6017 52.0151 93.5061C51.9061 93.4106 51.8354 93.2788 51.8162 93.1351L45.4166 45.2792C45.3955 45.1218 45.4379 44.9624 45.5343 44.8362C45.6307 44.71 45.7733 44.6273 45.9307 44.6063L71.9957 41.1207C72.0737 41.1103 72.153 41.1154 72.229 41.1356C72.3051 41.1559 72.3764 41.191 72.4389 41.2388C72.5014 41.2867 72.5539 41.3464 72.5933 41.4145C72.6327 41.4826 72.6583 41.5579 72.6686 41.6359L76.4053 69.9348L75.2179 70.0915L71.5599 42.3873L46.6829 45.7139L52.9242 92.3844L66.4659 90.6117L66.6213 91.7992L52.4874 93.6496C52.4614 93.6529 52.4352 93.6545 52.409 93.6546Z" fill="white"/>
<path d="M61.8099 73.8173C59.9822 73.8137 58.1942 73.284 56.6596 72.2913C55.1249 71.2987 53.9085 69.8852 53.1558 68.2197C52.403 66.5542 52.1458 64.7072 52.4148 62.8994C52.6837 61.0916 53.4676 59.3995 54.6726 58.0253C55.8776 56.6511 57.4528 55.6529 59.21 55.15C60.9671 54.6472 62.8319 54.6609 64.5815 55.1896C66.331 55.7183 67.8914 56.7396 69.076 58.1315C70.2606 59.5233 71.0194 61.2268 71.2617 63.0384C71.5932 65.5394 70.9192 68.0698 69.3875 70.0745C67.8557 72.0792 65.5913 73.3944 63.0911 73.7317C62.6664 73.7886 62.2384 73.8172 61.8099 73.8173ZM61.8469 55.9797C61.4724 55.9798 61.0983 56.0048 60.7271 56.0545C58.5968 56.3426 56.6618 57.447 55.3304 59.1348C53.999 60.8225 53.3754 62.9615 53.5911 65.1003C53.8069 67.2391 54.8452 69.2105 56.4869 70.5983C58.1286 71.9861 60.2452 72.6818 62.3901 72.5386C64.535 72.3954 66.5404 71.4244 67.983 69.8307C69.4256 68.237 70.1926 66.1451 70.1221 63.9966C70.0516 61.8481 69.1492 59.811 67.6052 58.3152C66.0613 56.8194 63.9966 55.982 61.8469 55.9797Z" fill="white"/>
<path d="M62.9869 78.7117C61.8989 78.7095 60.8345 78.3941 59.921 77.8031C59.0075 77.2121 58.2834 76.3706 57.8354 75.3791C57.3873 74.3876 57.2342 73.2881 57.3944 72.212C57.5546 71.1358 58.0212 70.1285 58.7385 69.3105C59.4559 68.4924 60.3936 67.8982 61.4396 67.5989C62.4857 67.2995 63.5958 67.3077 64.6373 67.6224C65.6788 67.9371 66.6076 68.545 67.3129 69.3736C68.0181 70.2021 68.4699 71.2161 68.6142 72.2945C68.8116 73.7835 68.4103 75.29 67.4983 76.4835C66.5864 77.677 65.2382 78.4599 63.7496 78.6606C63.4968 78.6946 63.242 78.7117 62.9869 78.7117ZM63.0018 68.5775C62.8028 68.5775 62.604 68.5907 62.4067 68.617C61.2581 68.7709 60.2143 69.365 59.4956 70.2741C58.7769 71.1831 58.4397 72.3359 58.5551 73.489C58.6704 74.642 59.2294 75.7051 60.1139 76.4538C60.9985 77.2024 62.1393 77.578 63.2956 77.5012C64.4519 77.4244 65.5331 76.9012 66.3108 76.0422C67.0886 75.1831 67.5021 74.0554 67.4639 72.8973C67.4258 71.7391 66.939 70.641 66.1064 69.835C65.2739 69.029 64.1606 68.5781 63.0018 68.5775ZM59.9681 53.8015C59.3137 53.8012 58.6732 53.6125 58.1232 53.2577C57.5732 52.903 57.137 52.3974 56.8668 51.8014C56.5966 51.2053 56.5038 50.544 56.5996 49.8966C56.6953 49.2492 56.9755 48.6431 57.4066 48.1507C57.8377 47.6583 58.4015 47.3006 59.0306 47.1202C59.6597 46.9398 60.3274 46.9444 60.954 47.1335C61.5805 47.3227 62.1393 47.6882 62.5635 48.1866C62.9878 48.6849 63.2595 49.2948 63.3462 49.9435C63.4659 50.839 63.225 51.7453 62.6765 52.4631C62.128 53.1809 61.3168 53.6515 60.4213 53.7712C60.2711 53.7913 60.1197 53.8015 59.9681 53.8015ZM59.975 48.1857C59.8755 48.1858 59.7761 48.1924 59.6774 48.2056C59.2444 48.2635 58.8383 48.4485 58.5105 48.7372C58.1826 49.026 57.9478 49.4054 57.8356 49.8276C57.7234 50.2498 57.7389 50.6958 57.8802 51.1092C58.0215 51.5226 58.2822 51.8848 58.6293 52.15C58.9764 52.4152 59.3944 52.5716 59.8304 52.5992C60.2664 52.6269 60.7007 52.5247 61.0786 52.3055C61.4565 52.0863 61.7609 51.76 61.9533 51.3678C62.1458 50.9756 62.2175 50.5351 62.1597 50.1021C62.0887 49.5726 61.8283 49.0867 61.4266 48.7343C61.025 48.382 60.5092 48.187 59.975 48.1857ZM64.3899 86.9025C63.7356 86.9012 63.0956 86.7116 62.5462 86.3563C61.9969 86.001 61.5615 85.495 61.292 84.8988C61.0226 84.3026 60.9305 83.6415 61.0268 82.9943C61.1231 82.3472 61.4036 81.7415 61.835 81.2496C62.2663 80.7577 62.8302 80.4004 63.4592 80.2204C64.0882 80.0404 64.7557 80.0453 65.382 80.2345C66.0082 80.4238 66.5668 80.7893 66.9908 81.2876C67.4149 81.7858 67.6865 82.3955 67.7732 83.044C67.893 83.9395 67.6521 84.8458 67.1036 85.5637C66.5551 86.2815 65.7439 86.7521 64.8484 86.8719C64.6964 86.8923 64.5432 86.9025 64.3899 86.9025ZM64.4017 81.2864C64.3022 81.2864 64.2028 81.2931 64.1041 81.3062C63.6711 81.3641 63.265 81.549 62.9371 81.8377C62.6092 82.1263 62.3743 82.5057 62.262 82.9279C62.1497 83.3501 62.1652 83.7961 62.3064 84.2095C62.4476 84.6229 62.7082 84.9852 63.0552 85.2505C63.4023 85.5157 63.8203 85.6722 64.2562 85.6999C64.6922 85.7277 65.1266 85.6256 65.5045 85.4064C65.8825 85.1873 66.1869 84.861 66.3794 84.4689C66.5719 84.0767 66.6438 83.6363 66.586 83.2033C66.5151 82.6738 66.2547 82.1879 65.8531 81.8356C65.4514 81.4833 64.9359 81.2877 64.4017 81.2864Z" fill="white"/>
<path d="M52.9993 93.1609L51.8201 92.9522L59.3807 50.2914C59.4057 50.1507 59.4801 50.0236 59.5906 49.933C59.701 49.8424 59.8402 49.7943 59.983 49.7973C60.1258 49.8003 60.2628 49.8543 60.3694 49.9495C60.4759 50.0446 60.5449 50.1748 60.5639 50.3163L66.0358 91.2336L64.8487 91.3922L59.887 54.2936L52.9993 93.1609Z" fill="white"/>
<path d="M72.0535 77.3786L59.5332 50.871L45.8012 45.761L46.2197 44.6388L60.181 49.8338C60.3274 49.8883 60.4468 49.9979 60.5136 50.1393L73.1382 76.8672L72.0535 77.3786Z" fill="white"/>
<path d="M59.636 49.9131L71.746 41.229L72.4443 42.2027L60.3343 50.8868L59.636 49.9131Z" fill="white"/>
<path d="M48.7295 61.9911L47.7 61.3794L58.5278 43.1513C58.574 43.0736 58.6372 43.0073 58.7126 42.9575C58.788 42.9077 58.8737 42.8756 58.9632 42.8636C59.0528 42.8516 59.1439 42.8601 59.2298 42.8883C59.3156 42.9166 59.394 42.9639 59.4589 43.0267L74.696 57.7693L73.8633 58.6301L59.1715 44.4141L48.7295 61.9911ZM90.6143 113.793C90.2297 113.793 89.8493 113.713 89.4968 113.56L64.1366 102.537C63.4531 102.239 62.9156 101.682 62.6422 100.988C62.3688 100.294 62.3818 99.5204 62.6782 98.8361L82.6579 52.8697C82.956 52.1863 83.5131 51.649 84.2068 51.3756C84.9006 51.1022 85.6744 51.1152 86.3586 51.4115L111.719 62.4344C112.058 62.5816 112.364 62.7942 112.621 63.0598C112.877 63.3255 113.079 63.6391 113.215 63.9828C113.35 64.3265 113.416 64.6934 113.41 65.0628C113.404 65.4321 113.324 65.7966 113.177 66.1353L93.1976 112.101C92.9785 112.604 92.6173 113.032 92.1584 113.332C91.6995 113.633 91.1628 113.793 90.6143 113.793ZM85.2399 52.376C84.9248 52.3758 84.6166 52.4676 84.3531 52.6401C84.0895 52.8127 83.8821 53.0585 83.7563 53.3473L63.7767 99.3135C63.6064 99.7064 63.599 100.151 63.756 100.549C63.913 100.947 64.2216 101.267 64.6142 101.438L89.9744 112.461C90.3672 112.632 90.8116 112.639 91.21 112.482C91.6083 112.325 91.9281 112.017 92.0992 111.624L112.079 65.6578C112.249 65.2649 112.256 64.8205 112.099 64.4221C111.942 64.0237 111.634 63.7039 111.241 63.5328L85.8813 52.5099C85.679 52.4216 85.4606 52.376 85.2399 52.376Z" fill="white"/>
<path d="M90.3631 110.466C90.281 110.466 90.1997 110.449 90.1244 110.416L66.0072 99.9334C65.9351 99.902 65.8698 99.8568 65.8152 99.8002C65.7606 99.7437 65.7176 99.6769 65.6888 99.6037C65.6599 99.5306 65.6458 99.4524 65.6471 99.3738C65.6485 99.2952 65.6653 99.2176 65.6967 99.1455L84.9432 54.8664C84.9745 54.7943 85.0198 54.729 85.0764 54.6744C85.133 54.6198 85.1997 54.5768 85.2729 54.548C85.3461 54.5192 85.4242 54.505 85.5029 54.5064C85.5815 54.5078 85.6591 54.5247 85.7312 54.556L109.848 65.0386C109.921 65.07 109.986 65.1152 110.04 65.1718C110.095 65.2284 110.138 65.2952 110.167 65.3684C110.196 65.4415 110.21 65.5197 110.208 65.5983C110.207 65.677 110.19 65.7545 110.159 65.8267L90.9123 110.106C90.8658 110.213 90.789 110.304 90.6915 110.368C90.5939 110.432 90.4798 110.466 90.3631 110.466ZM67.0339 99.0738L90.0527 109.079L108.822 65.8975L85.8029 55.8923L67.0339 99.0738Z" fill="white"/>
<path d="M89.1552 89.1464C87.1072 89.1435 85.1148 88.4799 83.4741 87.2543C81.8333 86.0287 80.6317 84.3064 80.0479 82.3435C79.464 80.3805 79.529 78.2815 80.2332 76.3584C80.9374 74.4353 82.2432 72.7907 83.9567 71.669C85.6701 70.5473 87.6998 70.0082 89.744 70.132C91.7882 70.2558 93.738 71.0358 95.3035 72.3561C96.8691 73.6764 97.967 75.4665 98.434 77.4605C98.901 79.4545 98.7123 81.546 97.8958 83.4242C97.1616 85.1308 95.9412 86.5835 94.3869 87.601C92.8325 88.6186 91.013 89.1561 89.1552 89.1464ZM89.1813 71.3123C87.1222 71.3094 85.1352 72.0705 83.6048 73.4482C82.0744 74.8259 81.1095 76.7222 80.8967 78.7704C80.6839 80.8185 81.2383 82.8727 82.4528 84.5356C83.6672 86.1985 85.4553 87.3518 87.4711 87.7724C89.4868 88.1929 91.5869 87.8509 93.3649 86.8123C95.143 85.7738 96.4726 84.1126 97.0966 82.1503C97.7205 80.1879 97.5943 78.0639 96.7425 76.1892C95.8907 74.3145 94.3738 72.8224 92.4853 72.0016C91.4426 71.5488 90.3182 71.3142 89.1813 71.3123Z" fill="white"/>
<path d="M85.6433 93.3883C84.424 93.3866 83.2378 92.9916 82.2609 92.262C81.284 91.5323 80.5686 90.507 80.2209 89.3383C79.8733 88.1696 79.9119 86.9199 80.3312 85.775C80.7504 84.63 81.5278 83.6508 82.548 82.983C83.5681 82.3151 84.7764 81.9942 85.9935 82.0678C87.2106 82.1415 88.3714 82.6059 89.3035 83.3919C90.2356 84.178 90.8893 85.2438 91.1673 86.4309C91.4454 87.6181 91.333 88.8633 90.8469 89.9815C90.4099 90.9976 89.6834 91.8625 88.758 92.4683C87.8326 93.0742 86.7493 93.3941 85.6433 93.3883ZM85.6568 83.2556C84.5508 83.2541 83.4835 83.6629 82.6614 84.4029C81.8394 85.1429 81.3211 86.1615 81.2067 87.2616C81.0924 88.3618 81.3902 89.4652 82.0426 90.3584C82.6949 91.2516 83.6553 91.8711 84.7381 92.097C85.8208 92.3229 86.9489 92.1392 87.9039 91.5813C88.859 91.0235 89.5732 90.1312 89.9083 89.0771C90.2435 88.0231 90.1757 86.8822 89.7181 85.8752C89.2606 84.8682 88.4458 84.0668 87.4314 83.6259C86.8713 83.3827 86.2674 83.2567 85.6568 83.2556ZM94.7559 70.1714C94.0228 70.1704 93.3096 69.9328 92.7222 69.4941C92.1348 69.0554 91.7047 68.4389 91.4957 67.7362C91.2867 67.0335 91.3099 66.2821 91.562 65.5937C91.8141 64.9052 92.2815 64.3165 92.8949 63.9149C93.5083 63.5134 94.2348 63.3204 94.9666 63.3647C95.6984 63.409 96.3964 63.6882 96.9568 64.1608C97.5173 64.6334 97.9103 65.2743 98.0775 65.9881C98.2447 66.7019 98.1771 67.4506 97.8849 68.1229C97.6221 68.7339 97.1852 69.2539 96.6288 69.6182C96.0724 69.9825 95.421 70.1749 94.7559 70.1714ZM94.7641 64.5565C94.2174 64.5558 93.6899 64.7579 93.2837 65.1237C92.8774 65.4895 92.6213 65.993 92.5648 66.5368C92.5084 67.0806 92.6557 67.626 92.9782 68.0674C93.3007 68.5089 93.7754 68.815 94.3106 68.9266C94.8458 69.0382 95.4033 68.9473 95.8754 68.6715C96.3474 68.3957 96.7004 67.9546 96.8659 67.4336C97.0315 66.9126 96.998 66.3487 96.7717 65.851C96.5455 65.3533 96.1427 64.9572 95.6413 64.7394C95.3645 64.6192 95.0659 64.557 94.7641 64.5565ZM81.4436 100.799C80.7105 100.798 79.9972 100.56 79.4099 100.121C78.8225 99.6826 78.3923 99.066 78.1833 98.3633C77.9743 97.6606 77.9975 96.9092 78.2496 96.2208C78.5017 95.5324 78.9692 94.9436 79.5825 94.5421C80.1959 94.1405 80.9225 93.9475 81.6543 93.9919C82.3861 94.0362 83.0841 94.3154 83.6445 94.788C84.205 95.2607 84.598 95.9015 84.7651 96.6154C84.9323 97.3292 84.8647 98.0779 84.5724 98.7502C84.307 99.3592 83.8695 99.8775 83.3137 100.241C82.7579 100.605 82.108 100.799 81.4436 100.799ZM81.4517 95.1838C81.0532 95.1832 80.662 95.2904 80.3195 95.4941C79.977 95.6978 79.6959 95.9903 79.5062 96.3407C79.3164 96.6911 79.225 97.0863 79.2416 97.4845C79.2582 97.8826 79.3822 98.2688 79.6005 98.6022C79.8188 98.9356 80.1232 99.2037 80.4814 99.3782C80.8397 99.5526 81.2385 99.6269 81.6356 99.5931C82.0326 99.5594 82.4131 99.4188 82.7368 99.1863C83.0604 98.9539 83.3152 98.6382 83.474 98.2727C83.62 97.9369 83.6802 97.57 83.6493 97.2052C83.6183 96.8403 83.497 96.4889 83.2964 96.1825C83.0959 95.8761 82.8222 95.6244 82.5002 95.4501C82.1782 95.2758 81.8179 95.1843 81.4517 95.1838Z" fill="white"/>
<path d="M78.8536 104.864L77.7554 104.386L92.6756 70.0597L66.6967 99.7783L65.7951 98.9901L94.3099 66.3709C94.4039 66.2632 94.5334 66.1928 94.6748 66.1722C94.8163 66.1517 94.9604 66.1824 95.0812 66.2588C95.202 66.3353 95.2914 66.4524 95.3334 66.5891C95.3753 66.7258 95.367 66.8729 95.3099 67.004L78.8536 104.864Z" fill="white"/>
<path d="M90.9588 109.928L89.7675 109.806L94.1401 66.9475L85.0238 55.4769L85.9614 54.7318L95.2297 66.3925C95.3269 66.5148 95.3725 66.6704 95.3566 66.8259L90.9588 109.928Z" fill="white"/>
<path d="M94.7226 66.1687L109.573 64.9919L109.668 66.1861L94.8172 67.3627L94.7226 66.1687Z" fill="white"/>
<path d="M102.401 80.9941L97.1661 61.2313L79.1453 70.8857L78.5797 69.8301L97.2683 59.8179C97.3479 59.7751 97.4363 59.751 97.5266 59.7473C97.6169 59.7436 97.7069 59.7604 97.7898 59.7964C97.8728 59.8325 97.9464 59.8868 98.0054 59.9554C98.0643 60.024 98.1069 60.105 98.1301 60.1924L103.559 80.6882L102.401 80.9941ZM107.541 57.8068C107.409 57.8068 107.281 57.7634 107.177 57.6833C107.072 57.6032 106.997 57.4908 106.963 57.3637L105.68 52.5962L100.912 51.313C100.785 51.2788 100.672 51.2036 100.592 51.099C100.512 50.9945 100.468 50.8664 100.468 50.7347C100.468 50.6029 100.512 50.4749 100.592 50.3703C100.672 50.2658 100.785 50.1906 100.912 50.1564L105.68 48.8732L106.963 44.1058C106.997 43.9787 107.072 43.8663 107.177 43.7862C107.281 43.7062 107.409 43.6628 107.541 43.6628C107.673 43.6628 107.801 43.7062 107.905 43.7862C108.01 43.8663 108.085 43.9787 108.119 44.1058L109.402 48.8732L114.17 50.1564C114.297 50.1906 114.41 50.2658 114.49 50.3703C114.57 50.4749 114.613 50.6029 114.613 50.7347C114.613 50.8664 114.57 50.9945 114.49 51.099C114.41 51.2036 114.297 51.2788 114.17 51.313L109.402 52.5962L108.119 57.3637C108.085 57.4909 108.01 57.6032 107.905 57.6833C107.801 57.7634 107.673 57.8068 107.541 57.8068ZM103.371 50.7345L106.324 51.5294C106.425 51.5566 106.517 51.61 106.591 51.6842C106.666 51.7584 106.719 51.8507 106.746 51.952L107.541 54.9046L108.336 51.952C108.363 51.8507 108.417 51.7584 108.491 51.6842C108.565 51.61 108.657 51.5566 108.759 51.5294L111.711 50.7345L108.759 49.9394C108.657 49.9122 108.565 49.8588 108.491 49.7846C108.417 49.7104 108.363 49.6181 108.336 49.5168L107.541 46.5644L106.746 49.5168C106.719 49.6181 106.666 49.7104 106.591 49.7846C106.517 49.8588 106.425 49.9122 106.324 49.9394L103.371 50.7345ZM43.3871 109.644C43.2554 109.644 43.1273 109.601 43.0228 109.521C42.9182 109.441 42.843 109.329 42.8088 109.201L41.2039 103.241L35.2434 101.636C35.1161 101.602 35.0037 101.527 34.9236 101.422C34.8434 101.317 34.8 101.189 34.8 101.058C34.8 100.926 34.8434 100.798 34.9236 100.693C35.0037 100.589 35.1161 100.514 35.2434 100.479L41.2039 98.8755L42.8088 92.9147C42.843 92.7876 42.9182 92.6753 43.0228 92.5952C43.1273 92.5151 43.2553 92.4717 43.387 92.4717C43.5187 92.4717 43.6467 92.5151 43.7512 92.5952C43.8557 92.6753 43.9309 92.7876 43.9652 92.9147L45.5695 98.8755L51.5303 100.48C51.6575 100.514 51.7699 100.59 51.8501 100.694C51.9302 100.799 51.9737 100.927 51.9737 101.058C51.9737 101.19 51.9302 101.318 51.8501 101.423C51.7699 101.527 51.6575 101.603 51.5303 101.637L45.5695 103.241L43.9647 109.201C43.9305 109.328 43.8554 109.441 43.751 109.521C43.6465 109.601 43.5187 109.644 43.3871 109.644ZM37.7023 101.058L41.8481 102.174C41.9494 102.201 42.0417 102.254 42.1159 102.329C42.19 102.403 42.2434 102.495 42.2707 102.596L43.3871 106.742L44.5033 102.596C44.5306 102.495 44.5839 102.403 44.6581 102.329C44.7323 102.254 44.8246 102.201 44.9259 102.174L49.0717 101.058L44.9259 99.9414C44.8246 99.9141 44.7323 99.8607 44.6581 99.7866C44.5839 99.7124 44.5306 99.6201 44.5033 99.5188L43.3871 95.3728L42.2707 99.5188C42.2434 99.6201 42.19 99.7124 42.1159 99.7866C42.0417 99.8607 41.9494 99.9141 41.8481 99.9414L37.7023 101.058ZM100.888 45.3698C100.756 45.3699 100.628 45.3264 100.524 45.2463C100.419 45.1662 100.344 45.0539 100.31 44.9267L99.5325 42.0405L96.6463 41.2636C96.5191 41.2294 96.4067 41.1542 96.3266 41.0496C96.2464 40.9451 96.203 40.817 96.203 40.6853C96.203 40.5536 96.2464 40.4255 96.3266 40.3209C96.4067 40.2164 96.5191 40.1412 96.6463 40.107L99.5325 39.3299L100.31 36.4434C100.344 36.3161 100.419 36.2038 100.524 36.1236C100.628 36.0434 100.756 36 100.888 36C101.02 36 101.148 36.0434 101.252 36.1236C101.357 36.2038 101.432 36.3161 101.466 36.4434L102.243 39.3295L105.129 40.1067C105.257 40.1409 105.369 40.2161 105.449 40.3206C105.529 40.4252 105.573 40.5532 105.573 40.685C105.573 40.8167 105.529 40.9448 105.449 41.0493C105.369 41.1539 105.257 41.229 105.129 41.2633L102.243 42.0402L101.466 44.9267C101.432 45.0538 101.357 45.1661 101.252 45.2462C101.148 45.3263 101.02 45.3697 100.888 45.3698ZM99.1056 40.6853L100.177 40.9738C100.278 41.001 100.371 41.0544 100.445 41.1286C100.519 41.2027 100.572 41.2951 100.6 41.3964L100.888 42.4676L101.176 41.3964C101.204 41.2951 101.257 41.2027 101.331 41.1286C101.405 41.0544 101.498 41.001 101.599 40.9738L102.671 40.6853L101.599 40.3968C101.498 40.3696 101.405 40.3162 101.331 40.242C101.257 40.1679 101.204 40.0755 101.176 39.9742L100.888 38.9028L100.6 39.9742C100.572 40.0755 100.519 40.1679 100.445 40.242C100.371 40.3162 100.278 40.3696 100.177 40.3968L99.1056 40.6853Z" fill="white"/>
<defs>
<linearGradient id="paint0_linear_29_3" x1="0" y1="150" x2="150" y2="0" gradientUnits="userSpaceOnUse">
<stop stop-color="#DB93E1"/>
<stop offset="0.52" stop-color="#C400D5"/>
<stop offset="0.9999" stop-color="#E702FA"/>
<stop offset="1" stop-color="#E700FB"/>
<stop offset="1" stop-color="#5E00A0"/>
<stop offset="1" stop-color="#4C0280"/>
</linearGradient>
</defs>
</svg>
