<svg width="128" height="128" viewBox="0 0 128 128" fill="none" xmlns="http://www.w3.org/2000/svg">
<g clip-path="url(#clip0_20_21)">
<circle cx="64" cy="64" r="64" fill="black"/>
<path d="M90.683 93.6816L78.5 80.5C75.3983 82.8905 70.1492 85.5502 66 86V103.543C75.4492 103.009 84.0288 99.3844 90.683 93.6816ZM94.08 90.4088C100.5 83.4559 105 73.5163 105 63.5C105 62.2207 103.523 62 102.195 62H87.6211C86.2932 62 86 63.0352 86 64.3145C86 69.2231 83.959 74.4362 81 78L94.08 90.4088Z" fill="url(#paint0_linear_20_21)"/>
<path d="M36.9147 33.8613L50 47C53.1017 44.6095 57.4485 42.4498 61.5977 42V24C52.1484 24.5334 43.5689 28.1585 36.9147 33.8613ZM33.5176 37.1341C27.0974 44.087 23 53.2121 23 63.2284C23 64.5077 24.0745 65.5429 25.4023 65.5429H39.9766C41.3044 65.5429 42 64.5077 42 63.2284C42 58.3198 44.2234 53.8628 47.1825 50.299L33.5176 37.1341ZM82.5618 45.1311C81.7524 44.4508 80.5794 44.3627 79.6855 44.921L58.8364 57.7339C56.0516 59.4471 54.3906 62.365 54.3906 65.5429C54.3906 70.6487 58.7003 74.8007 64 74.8007C67.7256 74.8007 71.146 72.6987 72.7131 69.4463L83.1553 47.8478C83.3746 47.394 83.4353 46.884 83.3283 46.3942C83.2213 45.9044 82.9523 45.4612 82.5618 45.1311ZM94.4824 37.1341L87.4214 43.9367C88.3106 45.7653 88.4275 47.9058 87.5097 49.8028L84.0223 55.5C84.8355 57.6523 86 60.8021 86 63.2284C86 64.5077 86.6956 65.5429 88.0234 65.5429H102.598C103.926 65.5429 105 64.5077 105 63.2284C105 53.2121 100.903 44.087 94.4824 37.1341ZM66.4023 24V42C68.425 42.2193 70.9048 43.224 72.7131 43.9367L77.1027 41.0173C79.0827 39.781 81.5024 39.5158 84.0223 40.6659L91.0853 33.8613C84.4311 28.1585 75.8516 24.5334 66.4023 24Z" fill="url(#paint1_linear_20_21)"/>
<path d="M36.9155 93.6835L50.5 81C53.6019 83.3907 57.4506 85.0502 61.6 85.5V103.545C52.1502 103.012 43.5701 99.3867 36.9155 93.6835ZM33.5183 90.4106C27.0977 83.4572 23 74.3315 23 64.3146C23 63.0352 24.0746 62 25.4025 62H39.9776C41.3055 62 42 63.0352 42 64.3146C42 69.2235 44.5408 74.936 47.5 78.5L33.5183 90.4106Z" fill="url(#paint2_linear_20_21)"/>
</g>
<defs>
<linearGradient id="paint0_linear_20_21" x1="37" y1="90" x2="98" y2="51" gradientUnits="userSpaceOnUse">
<stop stop-color="white"/>
<stop offset="1" stop-color="#B9B9B9"/>
</linearGradient>
<linearGradient id="paint1_linear_20_21" x1="37" y1="90" x2="98" y2="51" gradientUnits="userSpaceOnUse">
<stop stop-color="white"/>
<stop offset="1" stop-color="#B9B9B9"/>
</linearGradient>
<linearGradient id="paint2_linear_20_21" x1="37" y1="90" x2="98" y2="51" gradientUnits="userSpaceOnUse">
<stop stop-color="white"/>
<stop offset="1" stop-color="#B9B9B9"/>
</linearGradient>
<clipPath id="clip0_20_21">
<rect width="128" height="128" fill="white"/>
</clipPath>
</defs>
</svg>
