<svg width="48" height="48" viewBox="0 0 48 48" fill="none" xmlns="http://www.w3.org/2000/svg">
<path d="M47.2797 29.8063C44.0742 42.6636 31.0519 50.4884 18.1931 47.2821C5.33961 44.0766 -2.48518 31.0536 0.721793 18.197C3.92579 5.33826 16.9481 -2.48728 29.8032 0.718204C42.6611 3.92375 50.4852 16.9483 47.2797 29.8063Z" fill="white"/>
<path d="M16.1059 28.0423C15.9754 28.3664 15.6446 28.8523 14.8991 28.6678C14.9254 28.7061 12.9851 28.1901 12.9851 28.1901L11.6779 31.2043L15.1046 32.0586C15.7421 32.2184 16.3669 32.3856 16.9819 32.5431L15.8921 36.9186L18.5224 37.5749L19.6016 33.2459C20.2991 33.4349 20.9987 33.6164 21.7001 33.7904L20.6246 38.0991L23.2579 38.7553L24.3476 34.3881C28.8379 35.2378 32.2144 34.8951 33.6356 30.8338C34.7809 27.5639 33.5787 25.6775 31.2162 24.4475C32.9367 24.0508 34.2326 22.919 34.5784 20.5813C35.0561 17.3878 32.6246 15.671 29.2998 14.5257L30.3784 10.1997L27.745 9.54344L26.6951 13.7555C26.0028 13.583 25.2918 13.4202 24.5854 13.2589L25.6428 9.01912L23.0111 8.36287L21.9318 12.6874C21.3588 12.5569 20.7963 12.4278 20.2503 12.2921L20.2533 12.2786L16.6218 11.3718L15.9212 14.1844C15.9212 14.1844 17.875 14.6321 17.8337 14.6599C18.9003 14.9261 19.093 15.6318 19.0608 16.1914L16.1059 28.0423ZM28.5619 29.0181C27.7481 32.288 22.2424 30.5203 20.4574 30.077L21.9034 24.2803C23.6883 24.7258 29.4123 25.6078 28.5619 29.0181ZM29.3764 20.5341C28.6339 23.5086 24.0513 21.9973 22.5648 21.6268L23.8759 16.3693C25.3624 16.7398 30.1496 17.4313 29.3764 20.5341Z" fill="black"/>
</svg>
