<svg width="20" height="20" viewBox="0 0 20 20" fill="none" xmlns="http://www.w3.org/2000/svg">
<g clip-path="url(#clip0_7_2)">
<path d="M12.7442 20C12.4651 20 12.2791 19.907 12.093 19.6279C12 19.4419 12 19.1628 12.093 18.8837L13.1163 17.2093C13.3023 16.8372 13.7674 16.7442 14.0465 16.9302C14.4186 17.1163 14.5116 17.5814 14.3256 17.8605L14.0465 18.3256C16.6512 17.7674 18.5116 15.4419 18.5116 12.6512C18.5116 12.2791 18.7907 11.907 19.2558 11.907C19.7209 11.907 20 12.186 20 12.6512C20 16.8372 16.7442 20 12.7442 20ZM0.651163 8C0.27907 8 0 7.62791 0 7.25581C0 3.25581 3.25581 0 7.25581 0C7.53488 0 7.72093 0.0930232 7.81395 0.372093C7.90698 0.55814 7.90698 0.837209 7.81395 1.11628L6.7907 2.69767C6.60465 2.97674 6.13954 3.16279 5.86047 2.97674C5.5814 2.7907 5.39535 2.32558 5.5814 2.04651L5.86047 1.67442C3.25581 2.23256 1.39535 4.46512 1.39535 7.25581C1.39535 7.62791 1.02326 8 0.651163 8ZM12.5581 10.6047V13.3023C12.5581 15.5349 11.6279 16.4651 9.39535 16.4651H6.60465C4.37209 16.5581 3.44186 15.6279 3.44186 13.3953V10.6977C3.44186 8.46512 4.37209 7.53488 6.60465 7.53488H9.30233C11.6279 7.44186 12.5581 8.37209 12.5581 10.6047Z" fill="white"/>
<path d="M13.3023 3.5349H10.6046C8.37208 3.5349 7.44185 4.46513 7.44185 6.60466H9.48836C12.186 6.60466 13.4884 7.90699 13.4884 10.6047V12.6512C15.7209 12.6512 16.5581 11.7209 16.5581 9.48839V6.69769C16.4651 4.46513 15.5349 3.5349 13.3023 3.5349Z" fill="white"/>
</g>
<defs>
<clipPath id="clip0_7_2">
<rect width="20" height="20" fill="white"/>
</clipPath>
</defs>
</svg>
