<svg width="48" height="48" viewBox="0 0 48 48" fill="none" xmlns="http://www.w3.org/2000/svg">
<path d="M47.2797 29.8063C44.0742 42.6636 31.0519 50.4884 18.1931 47.2821C5.3396 44.0766 -2.48519 31.0536 0.721786 18.197C3.92578 5.33826 16.9481 -2.48728 29.8031 0.718204C42.6611 3.92375 50.4852 16.9483 47.2797 29.8063Z" fill="white"/>
<path d="M28.2945 22.6277C27.0828 21.9772 25.7945 21.4815 24.519 20.9672C23.7792 20.6698 23.0713 20.3228 22.4463 19.8395C21.2154 18.8854 21.4514 17.3364 22.8927 16.723C23.3009 16.5495 23.7282 16.4937 24.1619 16.4689C25.8328 16.3822 27.4208 16.6796 28.9323 17.3859C29.6848 17.7391 29.9335 17.6276 30.1886 16.8655C30.4565 16.06 30.6797 15.2421 30.9284 14.4304C31.0943 13.8852 30.8902 13.5258 30.3608 13.2966C29.3915 12.8814 28.3966 12.584 27.3506 12.4229C25.9858 12.2185 25.9858 12.2123 25.9795 10.8801C25.9731 9.00275 25.9731 9.00275 24.0343 9.00275C23.7537 9.00275 23.4731 8.99656 23.1925 9.00275C22.2869 9.02754 22.1338 9.18244 22.1083 10.0685C22.0955 10.465 22.1083 10.8616 22.1019 11.2643C22.0955 12.4415 22.0892 12.4229 20.9284 12.8319C18.1223 13.8232 16.3876 15.682 16.2027 18.6561C16.0369 21.2894 17.4527 23.0677 19.6784 24.3626C21.0496 25.1619 22.5675 25.6328 24.0216 26.2586C24.5892 26.5002 25.1313 26.7791 25.6032 27.1632C26.9999 28.2847 26.7448 30.1497 25.0866 30.856C24.2001 31.234 23.2626 31.3269 22.2996 31.2092C20.8136 31.0295 19.3915 30.6516 18.0522 29.9762C17.2677 29.5797 17.0381 29.685 16.7703 30.509C16.5407 31.2216 16.3366 31.9403 16.1325 32.6591C15.8583 33.6256 15.9603 33.8549 16.9106 34.3072C18.1223 34.8772 19.417 35.1684 20.7371 35.3729C21.7703 35.534 21.8022 35.5774 21.8149 36.6183C21.8213 37.0892 21.8213 37.5663 21.8277 38.0372C21.8341 38.632 22.1274 38.979 22.7588 38.9914C23.4731 39.0038 24.1937 39.0038 24.908 38.9852C25.4948 38.9728 25.7945 38.663 25.7945 38.0867C25.7945 37.4424 25.8264 36.7918 25.8009 36.1474C25.769 35.4906 26.0624 35.156 26.7129 34.9826C28.2116 34.586 29.4871 33.8053 30.4693 32.6405C33.1989 29.4186 32.1593 24.7034 28.2945 22.6277Z" fill="black"/>
</svg>
