<svg width="48" height="48" viewBox="0 0 48 48" fill="none" xmlns="http://www.w3.org/2000/svg">
<path d="M24 48C37.2548 48 48 37.2548 48 24C48 10.7452 37.2548 0 24 0C10.7452 0 0 10.7452 0 24C0 37.2548 10.7452 48 24 48Z" fill="white"/>
<path d="M32.3917 25.8916C32.3553 25.8893 24.109 30.7761 24.001 30.8179C23.9767 30.8039 15.658 25.8804 15.6184 25.8854C15.6386 25.915 23.9954 37.7143 24.001 37.7143C24.0067 37.7143 32.3917 25.8916 32.3917 25.8916Z" fill="black"/>
<path d="M24.005 10.2857L15.6456 24.2667L24.005 29.2184L32.3646 24.2667L24.005 10.2857Z" fill="black"/>
</svg>
