<svg width="48" height="48" viewBox="0 0 48 48" fill="none" xmlns="http://www.w3.org/2000/svg">
<path d="M47.2797 29.8063C44.0742 42.6636 31.0519 50.4884 18.1931 47.2821C5.3396 44.0766 -2.48519 31.0536 0.721786 18.197C3.92578 5.33826 16.9481 -2.48728 29.8031 0.718204C42.6611 3.92375 50.4852 16.9483 47.2797 29.8063Z" fill="white"/>
<path d="M34.8774 35.0004C34.5755 34.2624 34.268 33.5245 33.9325 32.7977C33.6362 32.1491 33.256 31.959 32.546 32.1212C31.6459 32.328 30.7626 32.602 29.8625 32.7865C28.1237 33.1499 26.3794 33.1834 24.6631 32.6411C22.5106 31.9646 21.3645 30.4048 20.6601 28.3921H26.4968C26.9553 28.3921 27.3243 28.0232 27.3243 27.5647V25.7254C27.3243 25.2669 26.9553 24.8979 26.4968 24.8979H20.101C20.101 24.3836 20.0954 23.8916 20.101 23.3996H26.4968C26.9553 23.3996 27.3243 23.0306 27.3243 22.5722V20.7328C27.3243 20.2744 26.9553 19.9054 26.4968 19.9054H20.9061C20.9061 19.883 20.9061 19.8607 20.9173 19.8495C21.5881 18.3232 22.5665 17.0988 24.1711 16.4615C26.0384 15.7235 27.9448 15.7403 29.868 16.1372C30.7793 16.3217 31.6739 16.6012 32.5852 16.8081C33.2505 16.9591 33.6362 16.7634 33.9213 16.1428C34.2512 15.4272 34.5531 14.7004 34.855 13.968C35.1401 13.2803 34.9724 12.7939 34.3239 12.4138C34.1617 12.3187 33.994 12.2405 33.8207 12.1734C31.126 11.1223 28.3474 10.731 25.4793 11.1894C23.461 11.5137 21.577 12.2069 19.9501 13.4704C17.8982 15.0582 16.5676 17.1547 15.7961 19.6203L15.7011 19.9054H12.8274C12.369 19.9054 12 20.2744 12 20.7328V22.5722C12 23.0306 12.369 23.3996 12.8274 23.3996H15.0917V24.8979H12.8274C12.369 24.8979 12 25.2669 12 25.7254V27.5647C12 28.0232 12.369 28.3921 12.8274 28.3921H15.5557C15.7626 29.063 15.9359 29.7451 16.1987 30.388C17.5796 33.7201 19.8941 36.0906 23.3772 37.2199C26.2564 38.1536 29.158 38.1256 32.0596 37.3262C32.8144 37.1193 33.5635 36.851 34.2792 36.5211C34.9724 36.2024 35.1513 35.6657 34.8774 35.0004Z" fill="black"/>
</svg>
