<svg width="128" height="128" viewBox="0 0 128 128" fill="none" xmlns="http://www.w3.org/2000/svg">
<g clip-path="url(#clip0_3_4)">
<circle cx="64" cy="64" r="64" fill="black"/>
<path d="M104.365 75.625C104.356 83.2445 101.325 90.5494 95.9372 95.9372C90.5494 101.325 83.2445 104.356 75.625 104.365C75.1328 104.365 74.6494 104.234 74.2242 103.986C73.799 103.738 73.4472 103.382 73.2047 102.953C72.9623 102.525 72.8378 102.04 72.8441 101.548C72.8504 101.056 72.9872 100.574 73.2405 100.152L77.1343 93.6623C77.3203 93.3454 77.5674 93.0684 77.8611 92.8475C78.1549 92.6265 78.4895 92.466 78.8456 92.3752C79.2018 92.2844 79.5724 92.265 79.9361 92.3183C80.2998 92.3716 80.6493 92.4964 80.9644 92.6856C81.2795 92.8748 81.554 93.1245 81.772 93.4205C81.9901 93.7164 82.1473 94.0526 82.2346 94.4096C82.3219 94.7666 82.3375 95.1374 82.2807 95.5005C82.2238 95.8637 82.0955 96.2119 81.9032 96.5252L80.902 98.1976C85.9914 97.0001 90.5276 94.1199 93.7763 90.0233C97.0249 85.9266 98.7958 80.8534 98.8021 75.625C98.8021 74.8874 99.0951 74.1799 99.6167 73.6584C100.138 73.1368 100.846 72.8437 101.583 72.8437C102.321 72.8437 103.028 73.1368 103.55 73.6584C104.072 74.1799 104.365 74.8874 104.365 75.625ZM27.4167 56.1562C28.1543 56.1562 28.8617 55.8632 29.3833 55.3416C29.9049 54.8201 30.1979 54.1126 30.1979 53.375C30.2044 48.1461 31.9758 43.0725 35.2252 38.9758C38.4745 34.8791 43.0116 31.9991 48.1017 30.8024L47.1005 32.4785C46.8934 32.7918 46.7518 33.1437 46.6843 33.5131C46.6168 33.8825 46.6249 34.2617 46.7079 34.6279C46.791 34.9942 46.9474 35.3398 47.1676 35.6439C47.3878 35.9481 47.6674 36.2045 47.9894 36.3977C48.3114 36.5909 48.6692 36.7169 49.0412 36.7681C49.4132 36.8193 49.7917 36.7946 50.1539 36.6955C50.5161 36.5965 50.8545 36.4251 51.1487 36.1917C51.4429 35.9584 51.6868 35.6678 51.8657 35.3377L55.7595 28.8481C56.0128 28.4261 56.1496 27.9444 56.1559 27.4522C56.1622 26.96 56.0377 26.475 55.7953 26.0467C55.5528 25.6183 55.201 25.262 54.7758 25.014C54.3506 24.7661 53.8672 24.6354 53.375 24.6354C45.7555 24.6442 38.4506 27.675 33.0628 33.0628C27.675 38.4506 24.6442 45.7555 24.6354 53.375C24.6354 54.1126 24.9284 54.8201 25.45 55.3416C25.9716 55.8632 26.679 56.1562 27.4167 56.1562ZM104.365 39.3946V48.8249C104.297 50.5768 103.796 52.2847 102.907 53.7957C102.018 55.3067 100.768 56.5739 99.2693 57.4838L90.3619 62.4345C88.8691 63.1875 87.2205 63.5798 85.5485 63.5798C83.8765 63.5798 82.2279 63.1875 80.7351 62.4345L71.8277 57.4838C70.3293 56.5736 69.0797 55.3064 68.1906 53.7954C67.3014 52.2845 66.8005 50.5767 66.7324 48.8249V39.3909C66.8009 37.6382 67.3024 35.9297 68.1922 34.4181C69.0819 32.9065 70.3322 31.6388 71.8314 30.7282L80.7351 25.7813C82.2275 25.0271 83.8763 24.6342 85.5485 24.6342C87.2207 24.6342 88.8695 25.0271 90.3619 25.7813L99.2693 30.7319C100.768 31.6419 102.018 32.909 102.907 34.42C103.796 35.9311 104.297 37.6426 104.365 39.3946ZM82.7673 46.6258L72.2949 40.5664V48.8249C72.3657 49.5823 72.6023 50.3149 72.9882 50.9706C73.374 51.6262 73.8995 52.1889 74.5273 52.6185L82.7673 57.1983V46.6258ZM85.5485 41.8087L96.425 35.5157L87.6585 30.6429C86.9929 30.3528 86.2746 30.203 85.5485 30.203C84.8224 30.203 84.1041 30.3528 83.4385 30.6429L74.672 35.5157L85.5485 41.8087ZM98.8021 40.5664L88.3298 46.6258V57.202L96.566 52.6222C97.1944 52.192 97.7205 51.6288 98.1069 50.9726C98.4934 50.3163 98.7307 49.5831 98.8021 48.8249V40.5664ZM62.2676 80.1862V89.6165C62.1991 91.3692 61.6976 93.0777 60.8078 94.5893C59.9181 96.1009 58.6678 97.3686 57.1686 98.2792L48.2649 103.226C46.7808 104.002 45.1261 104.395 43.4515 104.368C41.7769 104.395 40.1223 104.002 38.6381 103.226L29.7307 98.2755C28.232 97.3656 26.9823 96.0984 26.0931 94.5874C25.204 93.0763 24.7031 91.3685 24.6354 89.6165V80.1862C24.7031 78.4343 25.204 76.7265 26.0931 75.2154C26.9823 73.7044 28.232 72.4372 29.7307 71.5273L38.6381 66.5767C40.1305 65.8225 41.7793 65.4296 43.4515 65.4296C45.1237 65.4296 46.7725 65.8225 48.2649 66.5767L57.1723 71.5273C58.6707 72.4375 59.9203 73.7047 60.8094 75.2157C61.6986 76.7267 62.1995 78.4344 62.2676 80.1862ZM40.6702 87.4175L30.1979 81.3544V89.6128C30.2693 90.3711 30.5066 91.1043 30.8931 91.7605C31.2795 92.4168 31.8056 92.98 32.434 93.4102L40.6702 97.99V87.4175ZM43.4515 82.6004L54.3243 76.3073L45.5615 71.4346C44.8959 71.1444 44.1776 70.9947 43.4515 70.9947C42.7254 70.9947 42.0071 71.1444 41.3415 71.4346L32.5712 76.3036L43.4515 82.6004ZM56.7051 81.3581L46.2327 87.4175V97.99L54.469 93.4139C55.0974 92.9837 55.6235 92.4205 56.0099 91.7642C56.3964 91.108 56.6337 90.3748 56.7051 89.6165V81.3581Z" fill="url(#paint0_linear_3_4)"/>
</g>
<defs>
<linearGradient id="paint0_linear_3_4" x1="30.0014" y1="98.9986" x2="98.9986" y2="30.0014" gradientUnits="userSpaceOnUse">
<stop stop-color="white"/>
<stop offset="1" stop-color="#BAB9B9"/>
</linearGradient>
<clipPath id="clip0_3_4">
<rect width="128" height="128" fill="white"/>
</clipPath>
</defs>
</svg>
