<svg width="128" height="128" viewBox="0 0 128 128" fill="none" xmlns="http://www.w3.org/2000/svg">
<g clip-path="url(#clip0_3_4)">
<circle cx="64" cy="64" r="64" fill="black"/>
<path d="M46.6527 83.1433C46.9539 83.224 47.2733 83.203 47.5614 83.0837C47.8495 82.9643 48.0902 82.7533 48.2461 82.4832L54.174 72.215H60.2771V76.6091C60.2771 76.7952 60.3137 76.9795 60.3849 77.1514C60.4561 77.3233 60.5605 77.4795 60.692 77.6111C60.8236 77.7427 60.9798 77.847 61.1517 77.9182C61.3236 77.9895 61.5079 78.0261 61.6939 78.0261H66.3059C66.492 78.0261 66.6762 77.9895 66.8482 77.9183C67.0201 77.8471 67.1763 77.7427 67.3078 77.6111C67.4394 77.4795 67.5438 77.3233 67.6149 77.1514C67.6861 76.9795 67.7227 76.7952 67.7227 76.6091V72.215H73.8253L79.7535 82.4832C79.9096 82.7532 80.1503 82.9641 80.4384 83.0835C80.7265 83.2028 81.0459 83.2238 81.3472 83.1433C81.6484 83.0625 81.9145 82.8845 82.1043 82.6371C82.2942 82.3897 82.3971 82.0865 82.3971 81.7746V64.618C82.3971 64.4056 82.3493 64.1958 82.2573 64.0044C82.1652 63.8129 82.0313 63.6445 81.8654 63.5119L75.9403 58.7716V39.157C75.9378 35.2835 74.89 31.4825 72.9074 28.1549C70.9248 24.8274 68.0808 22.0965 64.6755 20.2505C64.4682 20.1378 64.236 20.0787 64 20.0787C63.764 20.0787 63.5318 20.1378 63.3245 20.2505C59.919 22.0966 57.0749 24.8276 55.0922 28.1554C53.1096 31.4833 52.0619 35.2846 52.0597 39.1582V58.7723L46.1346 63.5119C45.9687 63.6445 45.8348 63.8129 45.7427 64.0044C45.6507 64.1958 45.6029 64.4056 45.6029 64.618V81.7746C45.6028 82.0865 45.7056 82.3897 45.8954 82.6372C46.0852 82.8847 46.3514 83.0626 46.6527 83.1433ZM64.8893 75.1925H63.1109V60.8693H64.8893V75.1925ZM79.5637 65.2994V76.4875L76.0131 70.3378C75.9918 70.3009 75.964 70.2706 75.9401 70.2371V62.4L79.5637 65.2994ZM54.8929 39.1598C54.8949 35.9279 55.735 32.7517 57.3312 29.9415C58.9274 27.1313 61.2251 24.783 64 23.1261C66.7747 24.7828 69.0723 27.1308 70.6685 29.9408C72.2647 32.7508 73.1048 35.9267 73.1069 39.1584V69.3815H67.7227V59.4525C67.7227 59.2665 67.6861 59.0822 67.6149 58.9104C67.5437 58.7385 67.4393 58.5823 67.3078 58.4507C67.1762 58.3192 67.02 58.2148 66.8481 58.1437C66.6762 58.0725 66.492 58.0359 66.3059 58.0359H61.6939C61.5079 58.0359 61.3236 58.0725 61.1517 58.1437C60.9798 58.2148 60.8236 58.3192 60.6921 58.4507C60.5605 58.5823 60.4561 58.7385 60.3849 58.9104C60.3137 59.0822 60.2771 59.2665 60.2771 59.4525V69.3814H54.8929V39.1598ZM48.4363 65.2994L52.0595 62.4009V70.2144C52.0565 70.2188 52.0528 70.2227 52.0502 70.2274L48.4362 76.4875V65.2994H48.4363ZM64 80.5923C64.1861 80.5923 64.3703 80.6289 64.5422 80.7001C64.7141 80.7713 64.8703 80.8757 65.0018 81.0073C65.1334 81.1388 65.2377 81.295 65.3089 81.4669C65.3801 81.6388 65.4167 81.8231 65.4166 82.0091V91.7864C65.4166 92.5692 64.7828 93.2034 64 93.2034C63.2172 93.2034 62.5832 92.5694 62.5832 91.7864V82.0091C62.5832 81.8231 62.6198 81.6388 62.691 81.4669C62.7621 81.295 62.8665 81.1388 62.9981 81.0072C63.1296 80.8756 63.2858 80.7713 63.4578 80.7001C63.6297 80.6289 63.8139 80.5923 64 80.5923ZM97.6085 106.504C97.6085 106.69 97.5719 106.875 97.5007 107.047C97.4295 107.219 97.3252 107.375 97.1936 107.506C97.062 107.638 96.9058 107.742 96.7338 107.814C96.5619 107.885 96.3776 107.921 96.1915 107.921H31.8081C31.622 107.921 31.4378 107.885 31.2659 107.814C31.0939 107.742 30.9377 107.638 30.8062 107.506C30.6746 107.375 30.5703 107.218 30.4991 107.047C30.4279 106.875 30.3913 106.69 30.3913 106.504C30.3913 106.318 30.428 106.134 30.4992 105.962C30.5704 105.79 30.6747 105.634 30.8063 105.502C30.9379 105.371 31.0941 105.267 31.266 105.195C31.4378 105.124 31.6221 105.088 31.8081 105.088H37.9554C38.595 101.98 40.3332 99.1453 42.8463 97.1887C45.3292 95.2569 48.4506 94.253 51.5695 94.3718C52.1859 91.2308 53.9198 88.4107 56.4542 86.4186V82.009C56.4542 81.8229 56.4908 81.6387 56.562 81.4668C56.6332 81.2948 56.7376 81.1387 56.8692 81.0071C57.0007 80.8755 57.1569 80.7712 57.3288 80.7C57.5007 80.6288 57.685 80.5921 57.871 80.5922C58.0571 80.5921 58.2414 80.6288 58.4133 80.7C58.5852 80.7712 58.7414 80.8755 58.873 81.0071C59.0046 81.1386 59.1089 81.2948 59.1801 81.4667C59.2514 81.6386 59.288 81.8229 59.288 82.009V95.937C59.288 96.7196 58.6538 97.354 57.871 97.354C57.0883 97.354 56.4542 96.7197 56.4542 95.937V90.3906C55.1812 91.9953 54.3767 93.9436 54.1933 96.0242C54.1764 96.216 54.1205 96.4023 54.0292 96.5718C53.9379 96.7413 53.8131 96.8904 53.6623 97.0101C53.5112 97.1294 53.3375 97.2168 53.1516 97.2669C52.9658 97.3171 52.7717 97.329 52.5811 97.3019C49.7542 96.8953 46.8402 97.6704 44.5867 99.424C42.7593 100.847 41.4573 102.862 40.8688 105.087H86.9454C85.7413 100.503 81.5688 97.1972 76.7257 97.1972C76.7042 97.1972 76.6828 97.1958 76.6624 97.1972C76.3107 97.1972 75.9715 97.0663 75.7109 96.8301C75.4503 96.5938 75.2869 96.2691 75.2525 95.9191C74.9805 93.1461 73.6279 90.647 71.5456 88.8885V99.4424C71.5414 99.8154 71.3903 100.172 71.1251 100.434C70.8599 100.696 70.5019 100.843 70.1289 100.843C69.7558 100.843 69.3979 100.696 69.1326 100.434C68.8674 100.172 68.7163 99.8154 68.7122 99.4424V82.0088C68.7122 81.633 68.8614 81.2727 69.1271 81.007C69.3928 80.7413 69.7532 80.592 70.129 80.592C70.315 80.592 70.4993 80.6286 70.6712 80.6998C70.843 80.771 70.9992 80.8754 71.1308 81.0069C71.2623 81.1385 71.3667 81.2947 71.4379 81.4666C71.509 81.6385 71.5456 81.8227 71.5456 82.0088V85.4295C74.8642 87.394 77.1718 90.6525 77.8948 94.4142C83.7773 94.9282 88.6714 99.2835 89.8558 105.087H96.1917C96.5674 105.088 96.9278 105.237 97.1935 105.502C97.4592 105.768 97.6085 106.129 97.6085 106.504Z" fill="white"/>
</g>
<defs>
<clipPath id="clip0_3_4">
<rect width="128" height="128" fill="white"/>
</clipPath>
</defs>
</svg>
