<svg width="246" height="59" viewBox="0 0 246 59" fill="none" xmlns="http://www.w3.org/2000/svg">
<g clip-path="url(#clip0_4_23)">
<path d="M53.544 49H50.772V29.652H53.544V49ZM72.5525 48.972H67.2045L62.5005 32.116H60.1205L61.8565 33.768V48.972H59.0845V29.624H64.4605L69.1085 46.536H71.5165L69.7805 44.772V29.624H72.5525V48.972ZM86.7404 32.088H82.4004V49H79.6284V32.088H75.3164V29.652H86.7404V32.088ZM99.1781 49H89.5181V34.468L91.9541 32.088H89.1821V29.652H99.1781V32.088H92.2901V38.976L94.3341 36.904H99.1781V39.312H92.2901V46.564H99.1781V49ZM115.423 49H112.651L112.707 47.04L107.163 41.468L109.039 39.312H112.651V32.088H106.099V49H103.327V34.468L105.763 32.088H102.991V29.652H112.987L115.423 32.088V38.976L112.987 41.412H110.719V41.776L115.423 46.424V49ZM132.657 32.088H122.661V46.564H129.213V39.312H124.705L127.141 36.904H131.985V49H129.213V46.928L127.141 49H122.297L119.889 46.564V32.088L122.297 29.652H130.221L132.657 32.088ZM148.887 49H146.143V41.748H139.563V49H136.791V32.088L139.227 29.652H148.887V49ZM147.879 32.088H139.563V41.412L141.663 39.312H146.143V33.824L147.879 32.088ZM166.192 49H154.432V29.652H157.204V46.564H163.42V44.156L166.192 41.412V49ZM181.699 49H178.955V41.748H172.375V49H169.603V32.088L172.039 29.652H181.699V49ZM180.691 32.088H172.375V41.412L174.475 39.312H178.955V33.824L180.691 32.088ZM180.859 23.772L176.715 27.216H173.943L177.387 23.772H180.859ZM195.897 32.088H191.557V49H188.785V32.088H184.473V29.652H195.897V32.088ZM201.446 49H198.674V29.652H201.446V49ZM218.411 46.564L215.975 49H209.059L206.651 46.564V32.088L209.059 29.652H215.975L218.411 32.088V34.104L215.639 36.904V32.088H209.423V46.564H215.639V44.52L218.411 41.748V46.564ZM234.305 46.564L231.869 49H224.617L222.209 46.564V32.088L224.617 29.652H231.869L234.305 32.088V46.564ZM231.533 46.564V32.088H224.981V46.564H231.533Z" fill="white"/>
<path d="M62.196 24.564L59.76 27H52.844L50.436 24.564V10.088L52.844 7.652H59.76L62.196 10.088V12.104L59.424 14.904V10.088H53.208V24.564H59.424V22.52L62.196 19.748V24.564ZM78.0906 24.564L75.6546 27H68.4026L65.9946 24.564V10.088L68.4026 7.652H75.6546L78.0906 10.088V24.564ZM75.3186 24.564V10.088H68.7666V24.564H75.3186ZM96.697 26.972H91.349L86.645 10.116H84.265L86.001 11.768V26.972H83.229V7.624H88.605L93.253 24.536H95.661L93.925 22.772V7.624H96.697V26.972ZM113.461 20.784L108.897 27H105.789L101.365 20.784V7.652H104.193V20.28L107.049 24.648H107.777L110.689 20.28V7.652H113.461V20.784ZM127.807 27H118.147V12.468L120.583 10.088H117.811V7.652H127.807V10.088H120.919V16.976L122.963 14.904H127.807V17.312H120.919V24.564H127.807V27ZM144.052 27H141.28L141.336 25.04L135.792 19.468L137.668 17.312H141.28V10.088H134.728V27H131.956V12.468L134.392 10.088H131.62V7.652H141.616L144.052 10.088V16.976L141.616 19.412H139.348V19.776L144.052 24.424V27ZM160.278 10.088H150.758V14.904H157.17L159.55 17.312V24.564L157.17 27H150.394L147.986 24.564V22.632L150.758 19.972V24.564H156.778V17.312H150.394L147.986 14.904V10.088L150.394 7.652H157.842L160.278 10.088ZM176.173 24.564L173.737 27H166.485L164.077 24.564V10.088L166.485 7.652H173.737L176.173 10.088V24.564ZM173.401 24.564V10.088H166.849V24.564H173.401ZM193.407 27H190.635L190.691 25.04L185.147 19.468L187.023 17.312H190.635V10.088H184.083V27H181.311V12.468L183.747 10.088H180.975V7.652H190.971L193.407 10.088V16.976L190.971 19.412H188.703V19.776L193.407 24.424V27Z" fill="white"/>
<path d="M22.2577 37.717C22.3921 37.7538 22.5347 37.7442 22.6633 37.6899C22.7918 37.6356 22.8993 37.5394 22.9689 37.4165L25.6146 32.7407H28.3385V34.7417C28.3385 34.8264 28.3548 34.9103 28.3866 34.9886C28.4184 35.0669 28.4649 35.138 28.5236 35.1979C28.5824 35.2578 28.6521 35.3053 28.7288 35.3378C28.8055 35.3702 28.8878 35.3869 28.9708 35.3869H31.0292C31.1122 35.3869 31.1945 35.3702 31.2712 35.3378C31.3479 35.3054 31.4177 35.2578 31.4764 35.1979C31.5351 35.138 31.5817 35.0669 31.6134 34.9886C31.6452 34.9103 31.6616 34.8264 31.6615 34.7417V32.7407H34.3852L37.0311 37.4165C37.1007 37.5394 37.2082 37.6355 37.3367 37.6898C37.4653 37.7441 37.6079 37.7537 37.7423 37.717C37.8768 37.6802 37.9955 37.5992 38.0803 37.4866C38.165 37.3739 38.2109 37.2358 38.2109 37.0938V29.2814C38.2109 29.1847 38.1896 29.0891 38.1485 29.002C38.1074 28.9148 38.0477 28.8381 37.9736 28.7777L35.3292 26.6192V17.6875C35.3281 15.9237 34.8604 14.1928 33.9755 12.6776C33.0907 11.1623 31.8214 9.91882 30.3015 9.07822C30.209 9.02689 30.1054 9 30 9C29.8947 9 29.7911 9.02689 29.6985 9.07822C28.1786 9.91884 26.9092 11.1624 26.0244 12.6778C25.1395 14.1932 24.6719 15.9241 24.6709 17.688V26.6195L22.0265 28.7777C21.9524 28.8381 21.8926 28.9148 21.8516 29.002C21.8105 29.0891 21.7891 29.1847 21.7892 29.2814V37.0938C21.7891 37.2358 21.835 37.3739 21.9197 37.4866C22.0044 37.5993 22.1232 37.6803 22.2577 37.717ZM30.3969 34.0966H29.6032V27.5744H30.3969V34.0966ZM36.9463 29.5917V34.6863L35.3616 31.8859C35.3522 31.8691 35.3398 31.8554 35.3291 31.8401V28.2714L36.9463 29.5917ZM25.9354 17.6888C25.9363 16.2171 26.3113 14.7708 27.0237 13.4911C27.7361 12.2114 28.7616 11.1422 30 10.3877C31.2384 11.1421 32.2639 12.2112 32.9763 13.4908C33.6887 14.7704 34.0636 16.2165 34.0646 17.6881V31.4505H31.6615V26.9292C31.6615 26.8445 31.6452 26.7606 31.6134 26.6824C31.5816 26.6041 31.5351 26.533 31.4763 26.4731C31.4176 26.4132 31.3479 26.3656 31.2712 26.3332C31.1945 26.3008 31.1122 26.2841 31.0292 26.2842H28.9708C28.8878 26.2841 28.8055 26.3008 28.7288 26.3332C28.6521 26.3656 28.5824 26.4132 28.5237 26.4731C28.4649 26.533 28.4184 26.6041 28.3866 26.6824C28.3548 26.7606 28.3385 26.8445 28.3385 26.9292V31.4504H25.9354V17.6888ZM23.0537 29.5917L24.6708 28.2718V31.8298C24.6695 31.8318 24.6679 31.8335 24.6667 31.8357L23.0537 34.6863V29.5917H23.0537ZM30 36.5554C30.0831 36.5554 30.1653 36.5721 30.242 36.6045C30.3187 36.637 30.3884 36.6845 30.4472 36.7444C30.5059 36.8043 30.5524 36.8754 30.5842 36.9537C30.616 37.032 30.6323 37.1159 30.6323 37.2006V41.6528C30.6323 42.0092 30.3494 42.298 30 42.298C29.6507 42.298 29.3677 42.0093 29.3677 41.6528V37.2006C29.3677 37.1159 29.384 37.032 29.4158 36.9537C29.4476 36.8754 29.4941 36.8043 29.5529 36.7444C29.6116 36.6845 29.6813 36.6369 29.758 36.6045C29.8348 36.5721 29.917 36.5554 30 36.5554ZM45 48.3547C45 48.4394 44.9837 48.5233 44.9519 48.6016C44.9201 48.6799 44.8735 48.7511 44.8148 48.811C44.7561 48.8709 44.6864 48.9185 44.6096 48.9509C44.5329 48.9833 44.4506 49 44.3676 49H15.6323C15.5493 49 15.467 48.9833 15.3903 48.9509C15.3136 48.9184 15.2439 48.8709 15.1852 48.811C15.1264 48.7511 15.0799 48.6799 15.0481 48.6016C15.0163 48.5233 15 48.4394 15 48.3547C15 48.27 15.0164 48.1861 15.0481 48.1078C15.0799 48.0295 15.1265 47.9584 15.1852 47.8985C15.2439 47.8386 15.3136 47.7911 15.3904 47.7587C15.4671 47.7263 15.5493 47.7096 15.6323 47.7096H18.3759C18.6614 46.2947 19.4372 45.0037 20.5588 44.1128C21.667 43.2331 23.0601 42.776 24.4521 42.8301C24.7272 41.3998 25.5011 40.1156 26.6323 39.2085V37.2005C26.6322 37.1158 26.6486 37.0319 26.6804 36.9536C26.7121 36.8753 26.7587 36.8042 26.8174 36.7443C26.8762 36.6844 26.9459 36.6369 27.0226 36.6045C27.0993 36.572 27.1815 36.5554 27.2646 36.5554C27.3476 36.5554 27.4299 36.572 27.5066 36.6045C27.5833 36.6369 27.653 36.6844 27.7118 36.7443C27.7705 36.8042 27.8171 36.8753 27.8489 36.9536C27.8806 37.0319 27.897 37.1158 27.897 37.2005V43.5428C27.897 43.8991 27.6139 44.188 27.2646 44.188C26.9152 44.188 26.6323 43.8992 26.6323 43.5428V41.0172C26.0641 41.7479 25.705 42.6351 25.6232 43.5825C25.6156 43.6698 25.5907 43.7546 25.5499 43.8318C25.5092 43.909 25.4535 43.9769 25.3862 44.0314C25.3187 44.0858 25.2412 44.1256 25.1583 44.1484C25.0753 44.1712 24.9887 44.1766 24.9036 44.1643C23.6419 43.9792 22.3414 44.3321 21.3356 45.1306C20.52 45.7785 19.9389 46.696 19.6762 47.7095H40.2409C39.7035 45.6222 37.8413 44.1166 35.6797 44.1166C35.6701 44.1166 35.6606 44.116 35.6515 44.1166C35.4945 44.1166 35.3431 44.057 35.2268 43.9495C35.1105 43.8419 35.0375 43.694 35.0222 43.5346C34.9008 42.2719 34.2971 41.1339 33.3677 40.3332V45.139C33.3659 45.3089 33.2985 45.4711 33.1801 45.5906C33.0617 45.71 32.9019 45.777 32.7354 45.777C32.569 45.777 32.4092 45.71 32.2908 45.5906C32.1724 45.4711 32.105 45.3089 32.1031 45.139V37.2004C32.1031 37.0293 32.1698 36.8652 32.2884 36.7443C32.4069 36.6233 32.5678 36.5553 32.7355 36.5553C32.8185 36.5553 32.9008 36.572 32.9775 36.6044C33.0542 36.6368 33.1239 36.6843 33.1826 36.7442C33.2413 36.8041 33.2879 36.8753 33.3197 36.9535C33.3514 37.0318 33.3678 37.1157 33.3677 37.2004V38.7581C34.8489 39.6527 35.8788 41.1364 36.2015 42.8494C38.8269 43.0834 41.0113 45.0667 41.5399 47.7095H44.3677C44.5354 47.7096 44.6962 47.7775 44.8148 47.8985C44.9334 48.0195 45 48.1836 45 48.3547Z" fill="white"/>
</g>
<defs>
<clipPath id="clip0_4_23">
<rect width="246" height="59" fill="white"/>
</clipPath>
</defs>
</svg>
