<svg width="246" height="59" viewBox="0 0 246 59" fill="none" xmlns="http://www.w3.org/2000/svg">
<g clip-path="url(#clip0_4_23)">
<path d="M53.544 49H50.772V29.652H53.544V49ZM72.5525 48.972H67.2045L62.5005 32.116H60.1205L61.8565 33.768V48.972H59.0845V29.624H64.4605L69.1085 46.536H71.5165L69.7805 44.772V29.624H72.5525V48.972ZM86.7404 32.088H82.4004V49H79.6284V32.088H75.3164V29.652H86.7404V32.088ZM99.1781 49H89.5181V34.468L91.9541 32.088H89.1821V29.652H99.1781V32.088H92.2901V38.976L94.3341 36.904H99.1781V39.312H92.2901V46.564H99.1781V49ZM115.423 49H112.651L112.707 47.04L107.163 41.468L109.039 39.312H112.651V32.088H106.099V49H103.327V34.468L105.763 32.088H102.991V29.652H112.987L115.423 32.088V38.976L112.987 41.412H110.719V41.776L115.423 46.424V49ZM132.657 32.088H122.661V46.564H129.213V39.312H124.705L127.141 36.904H131.985V49H129.213V46.928L127.141 49H122.297L119.889 46.564V32.088L122.297 29.652H130.221L132.657 32.088ZM148.887 49H146.143V41.748H139.563V49H136.791V32.088L139.227 29.652H148.887V49ZM147.879 32.088H139.563V41.412L141.663 39.312H146.143V33.824L147.879 32.088ZM166.192 49H154.432V29.652H157.204V46.564H163.42V44.156L166.192 41.412V49ZM181.699 49H178.955V41.748H172.375V49H169.603V32.088L172.039 29.652H181.699V49ZM180.691 32.088H172.375V41.412L174.475 39.312H178.955V33.824L180.691 32.088ZM180.859 23.772L176.715 27.216H173.943L177.387 23.772H180.859ZM195.897 32.088H191.557V49H188.785V32.088H184.473V29.652H195.897V32.088ZM201.446 49H198.674V29.652H201.446V49ZM218.411 46.564L215.975 49H209.059L206.651 46.564V32.088L209.059 29.652H215.975L218.411 32.088V34.104L215.639 36.904V32.088H209.423V46.564H215.639V44.52L218.411 41.748V46.564ZM234.305 46.564L231.869 49H224.617L222.209 46.564V32.088L224.617 29.652H231.869L234.305 32.088V46.564ZM231.533 46.564V32.088H224.981V46.564H231.533Z" fill="white"/>
<path fill-rule="evenodd" clip-rule="evenodd" d="M23 49.7196C34.4467 49.7196 43.7261 40.2192 43.7261 28.5C43.7261 16.7808 34.4467 7.28043 23 7.28043C11.5533 7.28043 2.27391 16.7808 2.27391 28.5C2.27391 40.2192 11.5533 49.7196 23 49.7196ZM23 50C34.598 50 44 40.3741 44 28.5C44 16.6259 34.598 7 23 7C11.402 7 2 16.6259 2 28.5C2 40.3741 11.402 50 23 50Z" fill="white"/>
<path d="M32.5911 17.104C28.5608 16.5695 24.6336 18.1227 21.6471 21.1149C17.3626 20.4961 14.7004 24.0917 14.3106 27.0282C14.2713 27.2546 14.4699 27.472 14.6858 27.4388L17.9005 27.0275C18.1286 27.2678 18.4134 27.5667 18.7689 27.9394L18.2191 29.107C18.1246 29.3079 18.0923 29.535 18.1269 29.7563C18.1614 29.9776 18.261 30.1819 18.4117 30.3403L20.3217 32.3523C20.4721 32.511 20.6661 32.6159 20.8761 32.6522C21.0862 32.6886 21.3018 32.6545 21.4925 32.5548L22.5992 31.9767L23.5832 33.0136C23.69 33.1261 23.8537 33.1497 23.9849 33.075C25.0448 32.468 26.7874 31.3304 28.4581 29.6223C28.6412 33.0808 26.0793 35.3545 23.8062 35.8694L23.9561 34.5751C24.0018 34.1059 23.3429 34.0237 23.2836 34.4886L23.0768 36.2775C23.0704 36.3325 23.0762 36.3883 23.0938 36.4404C23.1114 36.4926 23.1403 36.5398 23.1781 36.5782C23.216 36.6165 23.2619 36.6451 23.3121 36.6616C23.3623 36.6781 23.4154 36.682 23.4673 36.6731C26.0922 36.2861 29.6716 33.6042 29.0815 28.9517C31.6308 26.2509 33.4849 21.6476 32.8873 17.4158C32.8784 17.3362 32.8443 17.2622 32.7906 17.2055C32.7368 17.1489 32.6666 17.1129 32.5911 17.1033V17.104ZM21.1912 31.9149C21.1277 31.9482 21.0559 31.9596 20.986 31.9475C20.916 31.9355 20.8515 31.9006 20.8013 31.8478L18.891 29.8358C18.8408 29.783 18.8076 29.7151 18.796 29.6414C18.7845 29.5677 18.7951 29.4921 18.8266 29.4252L19.275 28.4722C20.1519 29.3977 21.2159 30.5196 22.0935 31.4443L21.1912 31.9153V31.9149ZM32.1121 21.3441C31.079 27.4078 26.1783 30.9619 23.8822 32.3191C22.7636 31.1412 19.9855 28.2083 18.4435 26.5897C18.9425 25.6382 19.7696 24.3499 20.4881 23.4526C20.7695 23.092 20.2495 22.6385 19.9658 22.997C19.215 23.93 18.3137 25.3436 17.811 26.3194L15.0722 26.6701C15.3068 25.6667 16.0264 23.5719 18.0673 22.4435C19.5218 21.6391 20.9644 21.7233 21.6949 21.8437C21.7982 21.8572 21.9057 21.8326 21.9857 21.7558C24.7787 18.9129 28.4422 17.3608 32.2433 17.7825C32.3563 18.9704 32.3121 20.169 32.1121 21.3441ZM18.4466 32.3281C16.1064 30.1325 14.0333 34.4661 14.0011 36.6199C13.9842 36.8278 14.1638 37.017 14.3607 36.9988C16.4003 36.9652 20.5044 34.7904 18.4466 32.3281ZM17.8076 34.7479C17.2869 35.2384 16.6862 35.6255 16.0345 35.8905C15.61 36.0627 15.1676 36.1817 14.7167 36.245C14.8698 35.0322 15.3662 33.8961 16.141 32.9847C17.3497 31.4958 19.2364 33.4532 17.8076 34.7479Z" fill="white"/>
<path d="M23.8772 22.7312C21.9892 24.2721 23.357 27.0223 26.0004 26.9999C28.6463 27.0185 30.0082 24.2802 28.1242 22.7312C26.9534 21.7563 25.0477 21.7563 23.8772 22.7312ZM27.5958 25.8274C25.423 27.5298 22.3614 24.9794 24.4057 23.1712C26.5916 21.4762 29.6311 24.0076 27.5958 25.8274Z" fill="white"/>
<path fill-rule="evenodd" clip-rule="evenodd" d="M37.1462 26.3202L37.2158 26.3809C37.1662 26.4378 37.1212 26.5003 37.082 26.5683C37.0427 26.6363 37.011 26.7065 36.9866 26.778L36.8991 26.7481C36.9255 26.671 36.9597 26.5954 37.0019 26.5221C37.0442 26.4489 37.0926 26.3815 37.1462 26.3202ZM36.8338 27.2377L36.926 27.2318C36.9358 27.3857 36.9757 27.5364 37.0433 27.6746L36.9603 27.7152C36.8874 27.5661 36.8444 27.4036 36.8338 27.2377ZM37.2601 28.1077L37.321 28.0382C37.3777 28.088 37.4401 28.133 37.5081 28.1722C37.576 28.2114 37.6462 28.243 37.7176 28.2672L37.6879 28.3547C37.6108 28.3286 37.5351 28.2945 37.4619 28.2522C37.3887 28.2099 37.3213 28.1614 37.2601 28.1077ZM38.1777 28.4181L38.1714 28.3259C38.3249 28.3153 38.4753 28.2745 38.6135 28.2061L38.6545 28.2889C38.5056 28.3627 38.3433 28.4066 38.1777 28.4181ZM39.0459 27.9875C39.0994 27.9261 39.1479 27.8587 39.1901 27.7855C39.2324 27.7123 39.2666 27.6366 39.2929 27.5596L39.2055 27.5297C39.1811 27.6011 39.1494 27.6713 39.1101 27.7393C39.0708 27.8073 39.0259 27.8698 38.9763 27.9267L39.0459 27.9875ZM39.3583 27.07L39.2661 27.0758C39.2562 26.922 39.2163 26.7713 39.1488 26.633L39.2318 26.5924C39.3047 26.7416 39.3477 26.904 39.3583 27.07ZM38.932 26.1999L38.8711 26.2694C38.8144 26.2197 38.7519 26.1747 38.684 26.1355C38.616 26.0962 38.5459 26.0646 38.4744 26.0404L38.5041 25.9529C38.5813 25.9791 38.657 26.0132 38.7302 26.0554C38.8034 26.0977 38.8708 26.1462 38.932 26.1999ZM38.0143 25.8895L38.0207 25.9817C37.8672 25.9923 37.7167 26.0331 37.5786 26.1016L37.5375 26.0188C37.6865 25.945 37.8487 25.901 38.0143 25.8895ZM39.7721 27.8362L39.8417 27.897C39.792 27.9538 39.7471 28.0164 39.7078 28.0844C39.6685 28.1524 39.6368 28.2226 39.6124 28.294L39.525 28.2641C39.5513 28.187 39.5855 28.1114 39.6278 28.0382C39.67 27.965 39.7185 27.8975 39.7721 27.8362ZM39.4596 28.7537L39.5519 28.7478C39.5617 28.9017 39.6016 29.0524 39.6692 29.1907L39.5861 29.2312C39.5133 29.0821 39.4702 28.9196 39.4596 28.7537ZM39.8859 29.6237L39.9468 29.5543C40.0035 29.604 40.066 29.649 40.1339 29.6882C40.2019 29.7274 40.272 29.759 40.3435 29.7833L40.3138 29.8708C40.2366 29.8446 40.1609 29.8105 40.0877 29.7682C40.0145 29.726 39.9471 29.6775 39.8859 29.6237ZM40.8036 29.9341L40.7972 29.8419C40.9507 29.8313 41.1012 29.7906 41.2393 29.7221L41.2804 29.8049C41.1314 29.8787 40.9692 29.9227 40.8036 29.9341ZM41.6717 29.5035C41.7253 29.4422 41.7737 29.3747 41.816 29.3015C41.8582 29.2283 41.8924 29.1526 41.9188 29.0756L41.8313 29.0457C41.8069 29.1171 41.7752 29.1873 41.7359 29.2553C41.6967 29.3233 41.6517 29.3859 41.6021 29.4427L41.6717 29.5035ZM41.9841 28.586L41.8919 28.5919C41.8821 28.438 41.8422 28.2873 41.7746 28.149L41.8576 28.1085C41.9305 28.2576 41.9735 28.4201 41.9841 28.586ZM41.5578 27.716L41.4969 27.7854C41.4402 27.7357 41.3778 27.6907 41.3098 27.6515C41.2419 27.6123 41.1717 27.5807 41.1003 27.5564L41.13 27.4689C41.2071 27.4951 41.2828 27.5292 41.356 27.5715C41.4292 27.6137 41.4966 27.6622 41.5578 27.716ZM40.6402 27.4056L40.6466 27.4978C40.493 27.5084 40.3426 27.5491 40.2044 27.6176L40.1634 27.5348C40.3124 27.461 40.4746 27.417 40.6402 27.4056ZM4.94349 34.0893L5.0131 34.1501C4.96344 34.2069 4.9185 34.2695 4.87924 34.3375C4.83997 34.4055 4.80828 34.4757 4.78387 34.5471L4.69643 34.5172C4.72277 34.4401 4.75694 34.3645 4.79921 34.2913C4.84148 34.218 4.88992 34.1506 4.94349 34.0893ZM4.63108 35.0068L4.7233 35.0009C4.7331 35.1548 4.77302 35.3055 4.84059 35.4438L4.75757 35.4843C4.68469 35.3352 4.64165 35.1727 4.63108 35.0068ZM5.05735 35.8768L5.11828 35.8074C5.17499 35.8571 5.23742 35.9021 5.30536 35.9413C5.3733 35.9805 5.44347 36.0121 5.5149 36.0364L5.4852 36.1239C5.40807 36.0977 5.33237 36.0636 5.25916 36.0213C5.18595 35.9791 5.11858 35.9305 5.05735 35.8768ZM5.97501 36.1872L5.96863 36.095C6.12216 36.0844 6.27262 36.0436 6.41079 35.9752L6.45181 36.058C6.30283 36.1318 6.14061 36.1758 5.97501 36.1872ZM6.84314 35.7566C6.8967 35.6953 6.94514 35.6278 6.98741 35.5546C7.02969 35.4814 7.06385 35.4057 7.0902 35.3287L7.00276 35.2988C6.97834 35.3702 6.94665 35.4404 6.90739 35.5084C6.86813 35.5764 6.82318 35.639 6.77353 35.6958L6.84314 35.7566ZM7.15555 34.8391L7.06333 34.845C7.05352 34.6911 7.0136 34.5404 6.94603 34.4021L7.02906 34.3616C7.10194 34.5107 7.14498 34.6732 7.15555 34.8391ZM6.72928 33.9691L6.66835 34.0385C6.61164 33.9888 6.54921 33.9438 6.48127 33.9046C6.41333 33.8654 6.34316 33.8338 6.27173 33.8095L6.30142 33.722C6.37856 33.7482 6.45426 33.7823 6.52747 33.8246C6.60068 33.8668 6.66805 33.9153 6.72928 33.9691ZM5.81161 33.6587L5.81799 33.7509C5.66446 33.7615 5.514 33.8022 5.37584 33.8707L5.33482 33.7879C5.48379 33.7141 5.64602 33.6701 5.81161 33.6587ZM21.9766 44.5092L22.0462 44.5699C21.9966 44.6268 21.9516 44.6894 21.9124 44.7574C21.8731 44.8254 21.8414 44.8956 21.817 44.967L21.7296 44.9371C21.7559 44.86 21.7901 44.7844 21.8323 44.7112C21.8746 44.6379 21.923 44.5705 21.9766 44.5092ZM21.6642 45.4267L21.7564 45.4208C21.7662 45.5747 21.8061 45.7254 21.8737 45.8636L21.7907 45.9042C21.7178 45.7551 21.6748 45.5926 21.6642 45.4267ZM22.0905 46.2967L22.1514 46.2273C22.2081 46.277 22.2705 46.322 22.3385 46.3612C22.4064 46.4004 22.4766 46.432 22.548 46.4562L22.5183 46.5437C22.4412 46.5176 22.3655 46.4835 22.2923 46.4412C22.2191 46.399 22.1517 46.3504 22.0905 46.2967ZM23.0081 46.6071L23.0018 46.5149C23.1553 46.5043 23.3057 46.4635 23.4439 46.3951L23.4849 46.4779C23.336 46.5517 23.1737 46.5957 23.0081 46.6071ZM23.8763 46.1765C23.9298 46.1151 23.9783 46.0477 24.0205 45.9745C24.0628 45.9013 24.097 45.8256 24.1233 45.7486L24.0359 45.7187C24.0115 45.7901 23.9798 45.8603 23.9405 45.9283C23.9012 45.9963 23.8563 46.0589 23.8067 46.1157L23.8763 46.1765ZM24.1887 45.259C24.1781 45.0931 24.1351 44.9306 24.0622 44.7814L23.9792 44.822C24.0467 44.9603 24.0866 45.111 24.0965 45.2648L24.1887 45.259ZM23.7624 44.3889L23.7015 44.4584C23.6448 44.4087 23.5823 44.3637 23.5144 44.3245C23.4465 44.2852 23.3763 44.2537 23.3049 44.2294L23.3345 44.1419C23.4117 44.1681 23.4874 44.2022 23.5606 44.2444C23.6338 44.2867 23.7012 44.3352 23.7624 44.3889ZM22.8447 44.0786L22.8511 44.1707C22.6976 44.1814 22.5471 44.2221 22.409 44.2906L22.3679 44.2078C22.5169 44.134 22.6791 44.09 22.8447 44.0786ZM28.4966 45.3444L28.5662 45.4052C28.5166 45.4621 28.4716 45.5246 28.4324 45.5926C28.3931 45.6606 28.3614 45.7308 28.337 45.8023L28.2495 45.7724C28.2759 45.6953 28.3101 45.6196 28.3523 45.5464C28.3946 45.4732 28.443 45.4058 28.4966 45.3444ZM28.1842 46.262L28.2764 46.2561C28.2862 46.41 28.3261 46.5607 28.3937 46.6989L28.3107 46.7395C28.2378 46.5904 28.1948 46.4279 28.1842 46.262ZM28.6105 47.132L28.6714 47.0625C28.7281 47.1123 28.7905 47.1573 28.8585 47.1965C28.9264 47.2357 28.9966 47.2673 29.068 47.2915L29.0383 47.379C28.9612 47.3529 28.8855 47.3188 28.8123 47.2765C28.7391 47.2342 28.6717 47.1857 28.6105 47.132ZM29.5281 47.4424L29.5218 47.3502C29.6753 47.3396 29.8257 47.2988 29.9639 47.2304L30.0049 47.3132C29.856 47.387 29.6937 47.4309 29.5281 47.4424ZM30.3963 47.0118C30.4498 46.9504 30.4983 46.883 30.5405 46.8098C30.5828 46.7366 30.617 46.6609 30.6433 46.5838L30.5559 46.554C30.5315 46.6254 30.4998 46.6956 30.4605 46.7636C30.4212 46.8316 30.3763 46.8941 30.3266 46.951L30.3963 47.0118ZM30.7087 46.0943L30.6164 46.1001C30.6066 45.9463 30.5667 45.7956 30.4992 45.6573L30.5822 45.6167C30.6551 45.7659 30.6981 45.9283 30.7087 46.0943ZM30.2824 45.2242L30.2215 45.2937C30.1648 45.2439 30.1023 45.199 30.0344 45.1597C29.9664 45.1205 29.8963 45.0889 29.8248 45.0647L29.8545 44.9772C29.9317 45.0034 30.0074 45.0375 30.0806 45.0797C30.1538 45.122 30.2212 45.1705 30.2824 45.2242ZM29.3647 44.9138L29.3711 45.006C29.2176 45.0166 29.0671 45.0574 28.929 45.1259L28.8879 45.0431C29.0369 44.9693 29.1991 44.9253 29.3647 44.9138ZM38.2895 37.5647L38.3458 37.6379C38.2657 37.6997 38.1959 37.7779 38.1419 37.8713C38.088 37.9648 38.0552 38.0643 38.0418 38.1646L37.9502 38.1524C37.9651 38.0403 38.0018 37.9292 38.0619 37.8251C38.122 37.7211 38.1999 37.6337 38.2895 37.5647ZM38.124 38.8081L38.1975 38.752C38.2589 38.8324 38.3368 38.9023 38.4301 38.9561C38.5233 39.01 38.6228 39.0426 38.7232 39.0555L38.7113 39.1472C38.5991 39.1327 38.4879 39.0962 38.3839 39.0362C38.2798 38.9761 38.1927 38.898 38.124 38.8081ZM39.3661 38.9699C39.4557 38.9009 39.5336 38.8135 39.5937 38.7095C39.6537 38.6054 39.6904 38.4943 39.7054 38.3822L39.6138 38.37C39.6004 38.4703 39.5676 38.5698 39.5136 38.6633C39.4597 38.7567 39.3899 38.8349 39.3097 38.8966L39.3661 38.9699ZM39.5315 37.7265L39.4581 37.7826C39.3967 37.7022 39.3188 37.6323 39.2255 37.5784C39.1322 37.5246 39.0327 37.492 38.9324 37.4791L38.9442 37.3874C39.0564 37.4019 39.1677 37.4384 39.2717 37.4984C39.3757 37.5585 39.4629 37.6366 39.5315 37.7265ZM33.1047 38.9649L33.1611 39.0381C33.0809 39.0998 33.0111 39.178 32.9572 39.2715C32.9032 39.3649 32.8704 39.4644 32.857 39.5647L32.7654 39.5525C32.7804 39.4404 32.8171 39.3293 32.8771 39.2253C32.9372 39.1212 33.0151 39.0338 33.1047 38.9649ZM32.9393 40.2082C33.0079 40.2982 33.0951 40.3762 33.1991 40.4363C33.3031 40.4964 33.4143 40.5328 33.5266 40.5473L33.5384 40.4557C33.4381 40.4427 33.3386 40.4101 33.2453 40.3563C33.152 40.3024 33.0741 40.2326 33.0127 40.1521L32.9393 40.2082ZM34.1813 40.37C34.2709 40.301 34.3488 40.2137 34.4089 40.1096C34.469 40.0055 34.5057 39.8944 34.5206 39.7823L34.429 39.7701C34.4156 39.8704 34.3828 39.97 34.3289 40.0634C34.2749 40.1568 34.2051 40.2351 34.125 40.2968L34.1813 40.37ZM34.3468 39.1266L34.2733 39.1827C34.2119 39.1023 34.134 39.0324 34.0407 38.9786C33.9475 38.9247 33.848 38.8922 33.7476 38.8792L33.7595 38.7876C33.8717 38.8021 33.9829 38.8385 34.0869 38.8986C34.191 38.9586 34.2781 39.0367 34.3468 39.1266ZM28.5443 35.7461L28.6007 35.8193C28.5205 35.8811 28.4507 35.9593 28.3968 36.0527C28.3429 36.1461 28.31 36.2457 28.2966 36.346L28.205 36.3338C28.22 36.2217 28.2567 36.1106 28.3168 36.0065C28.3768 35.9024 28.4547 35.8151 28.5443 35.7461ZM28.3789 36.9895C28.4475 37.0794 28.5347 37.1575 28.6387 37.2176C28.7428 37.2776 28.854 37.3141 28.9662 37.3286L28.978 37.2369C28.8777 37.224 28.7782 37.1914 28.6849 37.1375C28.5917 37.0837 28.5137 37.0138 28.4523 36.9334L28.3789 36.9895ZM29.621 37.1513C29.7105 37.0823 29.7884 36.9949 29.8485 36.8909C29.9086 36.7868 29.9453 36.6757 29.9602 36.5636L29.8686 36.5514C29.8553 36.6517 29.8224 36.7512 29.7685 36.8447C29.7145 36.9381 29.6447 37.0163 29.5646 37.078L29.621 37.1513ZM29.7864 35.9079L29.7129 35.964C29.6516 35.8836 29.5736 35.8137 29.4803 35.7598C29.3871 35.706 29.2876 35.6734 29.1873 35.6605L29.1991 35.5688C29.3113 35.5833 29.4225 35.6198 29.5265 35.6798C29.6306 35.7399 29.7177 35.818 29.7864 35.9079ZM25.2369 37.9373L25.2933 38.0105C25.2131 38.0722 25.1434 38.1504 25.0894 38.2439C25.0355 38.3373 25.0026 38.4368 24.9893 38.5371L24.8977 38.5249C24.9126 38.4128 24.9493 38.3017 25.0094 38.1977C25.0695 38.0936 25.1474 38.0062 25.2369 37.9373ZM25.0715 39.1806L25.1449 39.1245C25.2063 39.2049 25.2843 39.2748 25.3776 39.3287C25.4708 39.3825 25.5703 39.4151 25.6706 39.4281L25.6588 39.5197C25.5466 39.5052 25.4354 39.4688 25.3313 39.4087C25.2273 39.3486 25.1401 39.2705 25.0715 39.1806ZM26.3136 39.3424C26.4032 39.2734 26.481 39.1861 26.5411 39.082C26.6012 38.9779 26.6379 38.8668 26.6529 38.7547L26.5613 38.7425C26.5479 38.8428 26.515 38.9424 26.4611 39.0358C26.4072 39.1292 26.3374 39.2074 26.2572 39.2692L26.3136 39.3424ZM26.479 38.099C26.4104 38.0091 26.3232 37.931 26.2192 37.871C26.1151 37.8109 26.0039 37.7744 25.8917 37.76L25.8799 37.8516C25.9802 37.8646 26.0797 37.8971 26.173 37.951C26.2662 38.0048 26.3442 38.0747 26.4056 38.1551L26.479 38.099ZM26.5694 45.7363L26.6258 45.8095C26.5456 45.8712 26.4758 45.9494 26.4219 46.0428C26.3679 46.1363 26.3351 46.2358 26.3217 46.3361L26.2301 46.3239C26.2451 46.2118 26.2818 46.1007 26.3418 45.9966C26.4019 45.8926 26.4798 45.8052 26.5694 45.7363ZM26.4039 46.9796C26.4726 47.0695 26.5598 47.1476 26.6638 47.2077C26.7678 47.2678 26.879 47.3042 26.9913 47.3187L27.0031 47.227C26.9028 47.2141 26.8033 47.1815 26.71 47.1277C26.6167 47.0738 26.5388 47.0039 26.4774 46.9235L26.4039 46.9796ZM27.646 47.1414L27.5897 47.0682C27.6698 47.0064 27.7396 46.9282 27.7936 46.8348C27.8475 46.7414 27.8803 46.6418 27.8937 46.5415L27.9853 46.5537C27.9704 46.6658 27.9337 46.7769 27.8736 46.881C27.8135 46.9851 27.7356 47.0724 27.646 47.1414ZM27.8115 45.898L27.738 45.9541C27.6766 45.8737 27.5987 45.8038 27.5054 45.75C27.4121 45.6961 27.3126 45.6636 27.2123 45.6506L27.2242 45.559C27.3364 45.5734 27.4476 45.6099 27.5516 45.6699C27.6557 45.73 27.7428 45.8081 27.8115 45.898ZM25.545 43.9732L25.6014 44.0464C25.5212 44.1081 25.4514 44.1864 25.3974 44.2798C25.3435 44.3732 25.3107 44.4728 25.2973 44.5731L25.2057 44.5608C25.2206 44.4488 25.2573 44.3376 25.3174 44.2336C25.3775 44.1295 25.4554 44.0422 25.545 43.9732ZM25.3795 45.2165L25.453 45.1605C25.5144 45.2409 25.5923 45.3108 25.6856 45.3646C25.7789 45.4185 25.8784 45.451 25.9787 45.464L25.9668 45.5556C25.8546 45.5411 25.7434 45.5047 25.6394 45.4446C25.5354 45.3846 25.4482 45.3065 25.3795 45.2165ZM26.6216 45.3783C26.7112 45.3093 26.7891 45.222 26.8492 45.1179C26.9092 45.0139 26.9459 44.9027 26.9609 44.7907L26.8693 44.7785C26.8559 44.8788 26.8231 44.9783 26.7691 45.0717C26.7152 45.1652 26.6454 45.2434 26.5652 45.3051L26.6216 45.3783ZM26.7871 44.135L26.7136 44.191C26.6522 44.1106 26.5743 44.0408 26.481 43.9869C26.3877 43.9331 26.2882 43.9005 26.1879 43.8875L26.1997 43.7959C26.312 43.8104 26.4232 43.8468 26.5272 43.9069C26.6312 43.9669 26.7184 44.045 26.7871 44.135ZM14.6263 39.1338L14.6827 39.207C14.6025 39.2687 14.5327 39.347 14.4787 39.4404C14.4248 39.5338 14.392 39.6334 14.3786 39.7337L14.287 39.7214C14.3019 39.6094 14.3386 39.4983 14.3987 39.3942C14.4588 39.2901 14.5367 39.2028 14.6263 39.1338ZM14.4608 40.3771C14.5295 40.4671 14.6167 40.5452 14.7207 40.6052C14.8247 40.6653 14.9359 40.7017 15.0481 40.7162L15.06 40.6246C14.9597 40.6116 14.8602 40.5791 14.7669 40.5252C14.6736 40.4714 14.5957 40.4015 14.5343 40.3211L14.4608 40.3771ZM15.7029 40.5389L15.6465 40.4657C15.7267 40.404 15.7965 40.3258 15.8504 40.2323C15.9044 40.1389 15.9372 40.0394 15.9506 39.9391L16.0422 39.9513C16.0272 40.0634 15.9905 40.1745 15.9305 40.2785C15.8704 40.3826 15.7925 40.47 15.7029 40.5389ZM15.8684 39.2956L15.7949 39.3516C15.7335 39.2712 15.6556 39.2014 15.5623 39.1475C15.469 39.0937 15.3695 39.0611 15.2692 39.0481L15.281 38.9565C15.3933 38.971 15.5045 39.0074 15.6085 39.0675C15.7125 39.1276 15.7997 39.2056 15.8684 39.2956ZM32.7618 33.4946L32.8182 33.5678C32.738 33.6296 32.6682 33.7078 32.6143 33.8012C32.5604 33.8946 32.5275 33.9942 32.5141 34.0945L32.4225 34.0823C32.4375 33.9702 32.4742 33.8591 32.5343 33.755C32.5943 33.651 32.6722 33.5636 32.7618 33.4946ZM32.5964 34.738L32.6698 34.6819C32.7312 34.7623 32.8092 34.8322 32.9024 34.886C32.9957 34.9399 33.0952 34.9725 33.1955 34.9854L33.1837 35.0771C33.0715 35.0626 32.9603 35.0261 32.8562 34.9661C32.7522 34.906 32.665 34.8279 32.5964 34.738ZM33.8385 34.8998C33.928 34.8308 34.0059 34.7434 34.066 34.6394C34.1261 34.5353 34.1628 34.4242 34.1777 34.3121L34.0861 34.2999C34.0728 34.4002 34.0399 34.4997 33.986 34.5932C33.932 34.6866 33.8622 34.7648 33.7821 34.8265L33.8385 34.8998ZM34.0039 33.6564L33.9304 33.7125C33.8691 33.6321 33.7911 33.5622 33.6978 33.5083C33.6046 33.4545 33.5051 33.4219 33.4048 33.409L33.4166 33.3173C33.5288 33.3318 33.64 33.3683 33.744 33.4283C33.8481 33.4884 33.9352 33.5665 34.0039 33.6564ZM34.157 31.0782L34.2133 31.1514C34.1332 31.2131 34.0634 31.2913 34.0094 31.3848C33.9555 31.4782 33.9227 31.5777 33.9093 31.678L33.8177 31.6658C33.8326 31.5538 33.8693 31.4426 33.9294 31.3386C33.9895 31.2345 34.0674 31.1471 34.157 31.0782ZM33.9915 32.3215C34.0602 32.4115 34.1473 32.4895 34.2514 32.5496C34.3554 32.6097 34.4666 32.6461 34.5788 32.6606L34.5907 32.569C34.4903 32.556 34.3908 32.5234 34.2976 32.4696C34.2043 32.4157 34.1263 32.3459 34.065 32.2655L33.9915 32.3215ZM35.2336 32.4833C35.3232 32.4143 35.4011 32.327 35.4612 32.2229C35.5212 32.1188 35.5579 32.0077 35.5729 31.8957L35.4813 31.8834C35.4679 31.9837 35.4351 32.0833 35.3811 32.1767C35.3272 32.2701 35.2574 32.3484 35.1772 32.4101L35.2336 32.4833ZM35.399 31.24L35.3256 31.296C35.2642 31.2156 35.1863 31.1457 35.093 31.0919C34.9997 31.038 34.9002 31.0055 34.7999 30.9925L34.8117 30.9009C34.9239 30.9154 35.0352 30.9518 35.1392 31.0119C35.2432 31.0719 35.3304 31.15 35.399 31.24Z" fill="white"/>
<path d="M62.196 24.564L59.76 27H52.844L50.436 24.564V10.088L52.844 7.652H59.76L62.196 10.088V12.104L59.424 14.904V10.088H53.208V24.564H59.424V22.52L62.196 19.748V24.564ZM78.0906 24.564L75.6546 27H68.4026L65.9946 24.564V10.088L68.4026 7.652H75.6546L78.0906 10.088V24.564ZM75.3186 24.564V10.088H68.7666V24.564H75.3186ZM96.697 26.972H91.349L86.645 10.116H84.265L86.001 11.768V26.972H83.229V7.624H88.605L93.253 24.536H95.661L93.925 22.772V7.624H96.697V26.972ZM113.461 20.784L108.897 27H105.789L101.365 20.784V7.652H104.193V20.28L107.049 24.648H107.777L110.689 20.28V7.652H113.461V20.784ZM127.807 27H118.147V12.468L120.583 10.088H117.811V7.652H127.807V10.088H120.919V16.976L122.963 14.904H127.807V17.312H120.919V24.564H127.807V27ZM144.052 27H141.28L141.336 25.04L135.792 19.468L137.668 17.312H141.28V10.088H134.728V27H131.956V12.468L134.392 10.088H131.62V7.652H141.616L144.052 10.088V16.976L141.616 19.412H139.348V19.776L144.052 24.424V27ZM160.278 10.088H150.758V14.904H157.17L159.55 17.312V24.564L157.17 27H150.394L147.986 24.564V22.632L150.758 19.972V24.564H156.778V17.312H150.394L147.986 14.904V10.088L150.394 7.652H157.842L160.278 10.088ZM176.173 24.564L173.737 27H166.485L164.077 24.564V10.088L166.485 7.652H173.737L176.173 10.088V24.564ZM173.401 24.564V10.088H166.849V24.564H173.401ZM193.407 27H190.635L190.691 25.04L185.147 19.468L187.023 17.312H190.635V10.088H184.083V27H181.311V12.468L183.747 10.088H180.975V7.652H190.971L193.407 10.088V16.976L190.971 19.412H188.703V19.776L193.407 24.424V27Z" fill="white"/>
</g>
<defs>
<clipPath id="clip0_4_23">
<rect width="246" height="59" fill="white"/>
</clipPath>
</defs>
</svg>
