<svg width="246" height="59" viewBox="0 0 246 59" fill="none" xmlns="http://www.w3.org/2000/svg">
<g clip-path="url(#clip0_4_23)">
<path d="M53.544 49H50.772V29.652H53.544V49ZM72.5525 48.972H67.2045L62.5005 32.116H60.1205L61.8565 33.768V48.972H59.0845V29.624H64.4605L69.1085 46.536H71.5165L69.7805 44.772V29.624H72.5525V48.972ZM86.7404 32.088H82.4004V49H79.6284V32.088H75.3164V29.652H86.7404V32.088ZM99.1781 49H89.5181V34.468L91.9541 32.088H89.1821V29.652H99.1781V32.088H92.2901V38.976L94.3341 36.904H99.1781V39.312H92.2901V46.564H99.1781V49ZM115.423 49H112.651L112.707 47.04L107.163 41.468L109.039 39.312H112.651V32.088H106.099V49H103.327V34.468L105.763 32.088H102.991V29.652H112.987L115.423 32.088V38.976L112.987 41.412H110.719V41.776L115.423 46.424V49ZM132.657 32.088H122.661V46.564H129.213V39.312H124.705L127.141 36.904H131.985V49H129.213V46.928L127.141 49H122.297L119.889 46.564V32.088L122.297 29.652H130.221L132.657 32.088ZM148.887 49H146.143V41.748H139.563V49H136.791V32.088L139.227 29.652H148.887V49ZM147.879 32.088H139.563V41.412L141.663 39.312H146.143V33.824L147.879 32.088ZM166.192 49H154.432V29.652H157.204V46.564H163.42V44.156L166.192 41.412V49ZM181.699 49H178.955V41.748H172.375V49H169.603V32.088L172.039 29.652H181.699V49ZM180.691 32.088H172.375V41.412L174.475 39.312H178.955V33.824L180.691 32.088ZM180.859 23.772L176.715 27.216H173.943L177.387 23.772H180.859ZM195.897 32.088H191.557V49H188.785V32.088H184.473V29.652H195.897V32.088ZM201.446 49H198.674V29.652H201.446V49ZM218.411 46.564L215.975 49H209.059L206.651 46.564V32.088L209.059 29.652H215.975L218.411 32.088V34.104L215.639 36.904V32.088H209.423V46.564H215.639V44.52L218.411 41.748V46.564ZM234.305 46.564L231.869 49H224.617L222.209 46.564V32.088L224.617 29.652H231.869L234.305 32.088V46.564ZM231.533 46.564V32.088H224.981V46.564H231.533Z" fill="white"/>
<path d="M25.8747 10.4904C21.5103 13.8328 19.2405 19.0727 19.2458 24.7891C14.5577 28.2939 15.4502 34.2771 17.8851 37.4574C18.0639 37.7115 18.4618 37.7294 18.6365 37.4913L21.3168 34.0243C21.7647 34.036 22.3227 34.0495 23.019 34.0659L23.6097 35.708C23.7114 35.9905 23.8977 36.2385 24.1423 36.417C24.3869 36.5955 24.6775 36.6956 24.973 36.703L28.7229 36.8006C29.0185 36.8084 29.3042 36.7233 29.5398 36.5572C29.7754 36.3911 29.9489 36.1524 30.0359 35.8747L30.5413 34.2639L32.4736 34.3145C32.6832 34.3199 32.8623 34.1859 32.9163 33.9891C33.3494 32.3954 33.9278 29.6416 33.892 26.4109C37.3738 29.5426 37.0983 34.1661 35.4173 36.8317L34.323 35.4509C33.9181 34.9585 33.2096 35.51 33.5974 36.0112L35.1101 37.9193C35.1565 37.978 35.2154 38.0258 35.2821 38.0588C35.3488 38.0919 35.4215 38.1094 35.4944 38.1099C35.5673 38.1103 35.6385 38.0938 35.7022 38.0616C35.766 38.0294 35.8206 37.9823 35.8617 37.9242C38.0013 35.0444 38.8595 29.0579 33.8469 25.1738C33.7021 20.154 31.0736 13.98 26.456 10.5052C26.3714 10.4378 26.268 10.3995 26.1625 10.3967C26.0569 10.3939 25.9554 10.4267 25.8741 10.4898L25.8747 10.4904ZM29.136 35.5511C29.1071 35.6435 29.0494 35.723 28.971 35.7784C28.8926 35.8338 28.7975 35.8622 28.6991 35.8596L24.9488 35.7624C24.8504 35.76 24.7537 35.7267 24.6722 35.6673C24.5907 35.6079 24.5286 35.5254 24.4947 35.4314L24.0123 34.0914C25.7356 34.1379 27.8255 34.1933 29.5488 34.2384L29.1364 35.5514L29.136 35.5511ZM29.4708 15.0024C34.2806 21.7878 32.9931 29.8716 32.0954 33.3646C29.8997 33.3078 24.4393 33.1599 21.4175 33.0866C20.9847 31.6997 20.5437 29.6772 20.3729 28.1322C20.2971 27.5184 19.3663 27.582 19.4378 28.196C19.612 29.8059 20.1019 32.0193 20.5543 33.4329L18.2709 36.3868C17.5359 35.2032 16.2209 32.5122 17.0935 29.4821C17.715 27.3223 19.1748 26.0235 19.9883 25.4402C20.1001 25.3543 20.1793 25.228 20.1824 25.0781C20.1347 19.6895 22.1534 14.7027 26.1909 11.4716C27.4347 12.4994 28.5385 13.6876 29.4708 15.0024ZM26.9069 38.5702C22.5702 38.7085 24.7315 44.8341 26.76 46.9241C26.9425 47.139 27.2952 47.1482 27.4661 46.9425C29.384 44.9604 31.2287 38.9569 26.9069 38.5702ZM28.6096 41.4947C28.5807 42.4616 28.3765 43.406 28.0068 44.2825C27.7655 44.8531 27.4564 45.3898 27.0857 45.8815C26.0726 44.5755 25.4609 43.0147 25.3303 41.4025C25.0624 38.8232 28.7377 38.8908 28.6096 41.4947Z" fill="white"/>
<path d="M22.2372 22.2118C22.2 25.785 26.6632 27.6325 29.1648 25.0795C31.7161 22.571 29.8764 18.1271 26.2979 18.1512C24.0598 18.1521 22.2378 19.9741 22.2372 22.2118ZM29.345 22.2088C29.2208 26.2395 23.3674 26.2406 23.2473 22.2114C23.3926 18.1767 29.2031 18.1749 29.345 22.2088Z" fill="white"/>
<path d="M62.196 24.564L59.76 27H52.844L50.436 24.564V10.088L52.844 7.652H59.76L62.196 10.088V12.104L59.424 14.904V10.088H53.208V24.564H59.424V22.52L62.196 19.748V24.564ZM78.0906 24.564L75.6546 27H68.4026L65.9946 24.564V10.088L68.4026 7.652H75.6546L78.0906 10.088V24.564ZM75.3186 24.564V10.088H68.7666V24.564H75.3186ZM96.697 26.972H91.349L86.645 10.116H84.265L86.001 11.768V26.972H83.229V7.624H88.605L93.253 24.536H95.661L93.925 22.772V7.624H96.697V26.972ZM113.461 20.784L108.897 27H105.789L101.365 20.784V7.652H104.193V20.28L107.049 24.648H107.777L110.689 20.28V7.652H113.461V20.784ZM127.807 27H118.147V12.468L120.583 10.088H117.811V7.652H127.807V10.088H120.919V16.976L122.963 14.904H127.807V17.312H120.919V24.564H127.807V27ZM144.052 27H141.28L141.336 25.04L135.792 19.468L137.668 17.312H141.28V10.088H134.728V27H131.956V12.468L134.392 10.088H131.62V7.652H141.616L144.052 10.088V16.976L141.616 19.412H139.348V19.776L144.052 24.424V27ZM160.278 10.088H150.758V14.904H157.17L159.55 17.312V24.564L157.17 27H150.394L147.986 24.564V22.632L150.758 19.972V24.564H156.778V17.312H150.394L147.986 14.904V10.088L150.394 7.652H157.842L160.278 10.088ZM176.173 24.564L173.737 27H166.485L164.077 24.564V10.088L166.485 7.652H173.737L176.173 10.088V24.564ZM173.401 24.564V10.088H166.849V24.564H173.401ZM193.407 27H190.635L190.691 25.04L185.147 19.468L187.023 17.312H190.635V10.088H184.083V27H181.311V12.468L183.747 10.088H180.975V7.652H190.971L193.407 10.088V16.976L190.971 19.412H188.703V19.776L193.407 24.424V27Z" fill="white"/>
</g>
<defs>
<clipPath id="clip0_4_23">
<rect width="246" height="59" fill="white"/>
</clipPath>
</defs>
</svg>
