<svg width="128" height="128" viewBox="0 0 128 128" fill="none" xmlns="http://www.w3.org/2000/svg">
<circle cx="64" cy="64" r="64" fill="black"/>
<path d="M97 38.4195C97 35.4393 94.5842 33.0235 91.604 33.0235H35.396C32.4158 33.0235 30 35.4393 30 38.4195V90.5805C30 93.5607 32.4158 95.9765 35.396 95.9765H91.604C94.5842 95.9765 97 93.5607 97 90.5805V38.4195ZM50.4597 39.7685H60.1275V47.4128H50.4597V39.7685ZM43.7148 89.2316H36.745V81.5873H43.7148V89.2316ZM43.7148 47.4128H36.745V39.7685H43.7148V47.4128ZM60.1275 89.2316H50.4597V81.5873H60.1275V89.2316ZM57.6544 70.7297V58.2701C57.6544 56.4153 58.9737 55.7291 60.5255 56.7451L69.572 62.6519C71.1238 63.6679 71.1364 65.3305 69.5846 66.3468L60.5192 72.2547C58.9674 73.2709 57.6544 72.5845 57.6544 70.7297ZM76.5403 89.2316H66.8725V81.5873H76.5403V89.2316ZM76.5403 47.4128H66.8725V39.7685H76.5403V47.4128ZM90.255 89.2316H83.2852V81.5873H90.255V89.2316ZM90.255 47.4128H83.2852V39.7685H90.255V47.4128Z" fill="url(#paint0_linear_3_3)"/>
<defs>
<linearGradient id="paint0_linear_3_3" x1="34" y1="94.5" x2="94.5" y2="36.5" gradientUnits="userSpaceOnUse">
<stop stop-color="#F79096"/>
<stop offset="1" stop-color="#CE0000"/>
</linearGradient>
</defs>
</svg>
