<svg width="128" height="128" viewBox="0 0 128 128" fill="none" xmlns="http://www.w3.org/2000/svg">
<circle cx="64" cy="64" r="64" fill="black"/>
<g clip-path="url(#clip0_3_3)">
<path d="M77.4493 39.6151C74.563 37.2037 70.0339 36.034 63.9257 36.034C61.2076 36.0381 58.4972 36.3211 55.8378 36.8786C53.8172 37.3793 51.923 38.2895 50.2742 39.5517C48.8776 40.607 47.7709 41.9938 47.0561 43.5846C46.393 45.1286 46.0596 46.7923 46.0769 48.4706V50.2906C46.0778 50.4789 46.1533 50.6593 46.2872 50.7929C46.421 50.9264 46.6025 51.0023 46.7923 51.0043H54.1435C54.2318 51.0106 54.3206 50.9995 54.4046 50.9717C54.4886 50.9439 54.5663 50.8999 54.6331 50.8422C54.7 50.7846 54.7547 50.7144 54.7941 50.6357C54.8335 50.557 54.8569 50.4714 54.8629 50.3837V50.3583C54.9736 48.703 55.6166 47.1267 56.6975 45.8609C58.0131 44.4294 60.3159 43.7071 63.7938 43.7071C65.2702 43.6649 66.7433 43.8676 68.1524 44.3069C69.1622 44.6159 70.0979 45.126 70.9022 45.806C71.5429 46.3504 72.0398 47.0419 72.3497 47.8203C72.6516 48.4975 72.8094 49.2292 72.8134 49.9697V51.9291C72.8375 52.6928 72.6786 53.4512 72.3497 54.142C72.0835 54.741 71.7228 55.2941 71.2812 55.7806C70.8729 56.1653 70.4329 56.5155 69.9659 56.8277C69.6273 57.0424 69.2762 57.237 68.9144 57.4106C68.6547 57.5414 67.9269 57.7357 66.8158 58.1963C65.6324 58.5846 64.381 59.0406 62.8742 59.5557C61.3631 60.1471 59.784 60.6031 58.1916 61.186C56.5998 61.7689 55.1693 62.1657 53.935 62.6174C51.5361 63.4282 49.4967 65.0424 48.1672 67.1829C46.8314 69.3424 46.127 71.8277 46.1325 74.3614V79.2474C46.1769 80.6341 46.425 82.0069 46.8689 83.3226C47.3403 84.9076 48.2503 86.3297 49.4954 87.4274C51.0664 88.8433 52.9239 89.9101 54.9438 90.5566C57.2467 91.3377 60.201 91.7937 63.9427 91.7937C67.6161 91.7937 70.6384 91.4054 72.9412 90.5566C73.4218 90.3801 73.8961 90.1871 74.3631 89.978C75.8389 89.3655 77.199 88.5087 78.3856 87.4443C79.6115 86.3296 80.5189 84.9136 81.0162 83.3394C81.4547 82.0144 81.6971 80.6332 81.7356 79.2391V48.6014C81.7186 45.0206 80.2714 42.0223 77.4493 39.6151ZM63.9257 84.108C60.5201 84.108 58.145 83.3943 56.9019 82.1529C55.6589 80.9111 54.9908 78.8969 54.9908 76.2871C54.9605 75.1515 55.2337 74.0282 55.7825 73.0311C56.2257 72.227 56.8012 71.502 57.4851 70.886C58.2382 70.3202 59.0519 69.8387 59.9115 69.4503C60.9671 69.0531 62.2144 68.6649 63.4614 68.2129C64.5086 67.8877 65.692 67.4909 66.867 67.0389C67.8203 66.7263 68.7696 66.4097 69.6508 66.0929L70.281 65.8649C70.837 65.6714 71.3661 65.4089 71.8558 65.0837C72.1276 64.9059 72.3609 64.6761 72.5422 64.4079C72.7235 64.1396 72.8491 63.8381 72.9116 63.5211L72.9752 76.3549C72.9752 78.8337 72.3157 80.7211 71.0641 82.0894C70.1791 82.9034 69.0845 83.4588 67.9012 83.6943C66.5968 83.9859 65.2627 84.1248 63.9257 84.108Z" fill="url(#paint0_linear_3_3)"/>
</g>
<defs>
<linearGradient id="paint0_linear_3_3" x1="63.9059" y1="36.034" x2="63.9059" y2="91.7937" gradientUnits="userSpaceOnUse">
<stop stop-color="white"/>
<stop offset="1" stop-color="#B9B9B9"/>
</linearGradient>
<clipPath id="clip0_3_3">
<rect width="36" height="56" fill="white" transform="translate(46 36)"/>
</clipPath>
</defs>
</svg>
