<svg width="128" height="128" viewBox="0 0 128 128" fill="none" xmlns="http://www.w3.org/2000/svg">
<circle cx="64" cy="64" r="64" fill="black"/>
<path d="M64.6074 86.125C69.8156 86.125 74.9069 84.5806 79.2374 81.687C83.5679 78.7935 86.9431 74.6808 88.9362 69.869C90.9293 65.0572 91.4508 59.7625 90.4347 54.6543C89.4187 49.5461 86.9107 44.854 83.2279 41.1712C79.5451 37.4884 74.8529 34.9804 69.7448 33.9643C64.6366 32.9482 59.3419 33.4697 54.5301 35.4628C49.7183 37.4559 45.6056 40.8312 42.712 45.1617C39.8185 49.4921 38.2741 54.5834 38.2741 59.7917C38.2819 66.7733 41.0588 73.4667 45.9956 78.4035C50.9323 83.3402 57.6258 86.1172 64.6074 86.125ZM77.7741 46.625C78.4251 46.625 79.0615 46.8181 79.6028 47.1797C80.1441 47.5414 80.566 48.0555 80.8152 48.657C81.0643 49.2585 81.1295 49.9203 81.0025 50.5588C80.8755 51.1974 80.562 51.7839 80.1016 52.2442C79.6413 52.7046 79.0548 53.0181 78.4162 53.1451C77.7777 53.2721 77.1159 53.2069 76.5144 52.9578C75.9129 52.7086 75.3988 52.2867 75.0371 51.7454C74.6754 51.2041 74.4824 50.5677 74.4824 49.9167C74.4824 49.0437 74.8292 48.2064 75.4465 47.5891C76.0638 46.9718 76.9011 46.625 77.7741 46.625ZM47.2188 57.8685C48.7709 57.856 50.2546 57.2284 51.3446 56.1234C52.4346 55.0183 53.0418 53.5261 53.0331 51.974C53.0331 51.7557 53.1198 51.5464 53.2741 51.3921C53.4284 51.2377 53.6377 51.151 53.856 51.151C54.0742 51.151 54.2835 51.2377 54.4379 51.3921C54.5922 51.5464 54.6789 51.7557 54.6789 51.974C54.67 53.5261 55.2771 55.0183 56.3671 56.1233C57.457 57.2284 58.9407 57.856 60.4928 57.8685C60.7111 57.8685 60.9204 57.9552 61.0747 58.1095C61.229 58.2639 61.3157 58.4732 61.3157 58.6914C61.3157 58.9097 61.229 59.119 61.0747 59.2733C60.9204 59.4276 60.7111 59.5143 60.4928 59.5143C58.9407 59.5268 57.457 60.1545 56.3671 61.2595C55.2771 62.3646 54.67 63.8568 54.6789 65.4089C54.6789 65.6271 54.5922 65.8365 54.4379 65.9908C54.2835 66.1451 54.0742 66.2318 53.856 66.2318C53.6377 66.2318 53.4284 66.1451 53.2741 65.9908C53.1198 65.8365 53.0331 65.6271 53.0331 65.4089C53.0418 63.8568 52.4346 62.3645 51.3446 61.2595C50.2546 60.1545 48.7709 59.5268 47.2188 59.5143C47.0005 59.5143 46.7912 59.4276 46.6369 59.2733C46.4825 59.119 46.3958 58.9097 46.3958 58.6914C46.3958 58.4732 46.4825 58.2639 46.6369 58.1095C46.7912 57.9552 47.0005 57.8685 47.2188 57.8685ZM51.3333 25.3633C52.8854 25.3758 54.3692 26.0034 55.4592 27.1084C56.5492 28.2135 57.1564 29.7057 57.1477 31.2579C57.1477 31.4761 57.2344 31.6854 57.3887 31.8397C57.543 31.9941 57.7523 32.0808 57.9706 32.0808C58.1888 32.0808 58.3981 31.9941 58.5525 31.8397C58.7068 31.6854 58.7935 31.4761 58.7935 31.2579C58.7846 29.7058 59.3917 28.2135 60.4817 27.1085C61.5716 26.0034 63.0553 25.3758 64.6074 25.3633C64.8256 25.3633 65.035 25.2766 65.1893 25.1223C65.3436 24.9679 65.4303 24.7586 65.4303 24.5404C65.4303 24.3221 65.3436 24.1128 65.1893 23.9585C65.035 23.8042 64.8256 23.7175 64.6074 23.7175C63.0553 23.705 61.5716 23.0773 60.4817 21.9723C59.3917 20.8673 58.7846 19.375 58.7935 17.8229C58.7935 17.6047 58.7068 17.3954 58.5525 17.241C58.3981 17.0867 58.1888 17 57.9706 17C57.7523 17 57.543 17.0867 57.3887 17.241C57.2344 17.3954 57.1477 17.6047 57.1477 17.8229C57.1564 19.375 56.5492 20.8673 55.4592 21.9723C54.3692 23.0774 52.8854 23.705 51.3333 23.7175C51.1151 23.7175 50.9058 23.8042 50.7514 23.9585C50.5971 24.1128 50.5104 24.3221 50.5104 24.5404C50.5104 24.7586 50.5971 24.9679 50.7514 25.1223C50.9058 25.2766 51.1151 25.3633 51.3333 25.3633ZM39.9199 40.1758C39.9199 39.9576 39.8332 39.7482 39.6789 39.5939C39.5245 39.4396 39.3152 39.3529 39.097 39.3529C37.5449 39.3404 36.0612 38.7128 34.9712 37.6077C33.8813 36.5027 33.2742 35.0104 33.2831 33.4583C33.2831 33.2401 33.1964 33.0308 33.042 32.8764C32.8877 32.7221 32.6784 32.6354 32.4602 32.6354C32.2419 32.6354 32.0326 32.7221 31.8783 32.8764C31.7239 33.0308 31.6372 33.2401 31.6372 33.4583C31.646 35.0105 31.0388 36.5027 29.9488 37.6077C28.8588 38.7128 27.375 39.3404 25.8229 39.3529C25.6047 39.3529 25.3954 39.4396 25.241 39.5939C25.0867 39.7482 25 39.9576 25 40.1758C25 40.3941 25.0867 40.6034 25.241 40.7577C25.3954 40.912 25.6047 40.9987 25.8229 40.9987C27.375 41.0112 28.8588 41.6388 29.9488 42.7439C31.0388 43.8489 31.646 45.3411 31.6372 46.8933C31.6372 47.0013 31.6585 47.1083 31.6999 47.2082C31.7412 47.308 31.8018 47.3987 31.8783 47.4752C31.9547 47.5516 32.0454 47.6122 32.1452 47.6535C32.2451 47.6949 32.3521 47.7162 32.4602 47.7162C32.5682 47.7162 32.6752 47.6949 32.7751 47.6535C32.8749 47.6122 32.9656 47.5516 33.042 47.4752C33.1185 47.3987 33.1791 47.308 33.2204 47.2082C33.2618 47.1083 33.2831 47.0013 33.2831 46.8933C33.2742 45.3412 33.8813 43.8489 34.9712 42.7439C36.0612 41.6388 37.5449 41.0112 39.097 40.9987C39.3152 40.9987 39.5245 40.912 39.6789 40.7577C39.8332 40.6034 39.9199 40.3941 39.9199 40.1758Z" fill="url(#paint0_linear_3_3)"/>
<path d="M84.2944 80C78.8378 84.9768 71.7187 87.7358 64.3333 87.7358C56.9479 87.7358 49.8289 84.9768 44.3723 80L38.964 85.4078C38.6584 85.7135 38.4159 86.0764 38.2505 86.4757C38.0851 86.8751 38 87.3031 38 87.7354V91.0271C38 91.9001 38.3468 92.7373 38.9641 93.3546C39.5814 93.972 40.4187 94.3188 41.2917 94.3188H87.375C88.248 94.3188 89.0853 93.972 89.7026 93.3546C90.3199 92.7373 90.6667 91.9001 90.6667 91.0271V87.7354C90.6667 87.3031 90.5816 86.8751 90.4161 86.4757C90.2507 86.0764 90.0083 85.7135 89.7026 85.4078L84.2944 80Z" fill="url(#paint1_linear_3_3)"/>
<defs>
<linearGradient id="paint0_linear_3_3" x1="31" y1="94" x2="30.8017" y2="64.4034" gradientUnits="userSpaceOnUse">
<stop stop-color="#DB93E1"/>
<stop stop-color="#DB93E1"/>
<stop offset="1" stop-color="#E700FB"/>
</linearGradient>
<linearGradient id="paint1_linear_3_3" x1="31" y1="94" x2="30.8017" y2="64.4034" gradientUnits="userSpaceOnUse">
<stop stop-color="#DB93E1"/>
<stop stop-color="#DB93E1"/>
<stop offset="1" stop-color="#E700FB"/>
</linearGradient>
</defs>
</svg>
